<svg width="20" height="20" viewBox="0 0 20 20" fill="none" xmlns="http://www.w3.org/2000/svg">
<path d="M10 1.66667C5.39714 1.66667 1.66667 5.39714 1.66667 10C1.66667 14.6029 5.39714 18.3333 10 18.3333C14.6029 18.3333 18.3333 14.6029 18.3333 10C18.3333 5.39714 14.6029 1.66667 10 1.66667ZM10 3.33334C13.6751 3.33334 16.6667 6.32488 16.6667 10C16.6667 10.3906 16.6276 10.7747 16.5625 11.1458C16.3574 11.1003 16.0547 11.0449 15.7031 11.0417C15.4427 11.0384 15.1172 11.0807 14.8438 11.1198C14.9382 10.8301 15 10.5111 15 10.1823C15 9.38152 14.6094 8.63607 13.9844 8.02084C14.1569 7.37956 14.3262 6.2793 13.8802 5.83334C12.5619 5.83334 11.8327 6.77409 11.7969 6.82292C11.39 6.72527 10.9701 6.66667 10.5208 6.66667C9.94466 6.66667 9.39453 6.77084 8.88021 6.92709L9.03646 6.79688C9.03646 6.79688 8.30404 5.78125 6.95313 5.78125C6.48112 6.25652 6.69596 7.46094 6.875 8.07292C6.23698 8.68165 5.83333 9.40105 5.83333 10.1823C5.83333 10.4557 5.89844 10.7162 5.96354 10.9635C5.73242 10.9375 4.89909 10.8594 4.55729 10.8594C4.25456 10.8594 3.78581 10.931 3.41146 11.0156C3.35938 10.6836 3.33333 10.3451 3.33333 10C3.33333 6.32488 6.32487 3.33334 10 3.33334ZM4.55729 11.0677C4.88607 11.0677 5.88542 11.1849 6.01563 11.1979C6.0319 11.2435 6.04818 11.2858 6.06771 11.3281C5.70964 11.2956 5.01628 11.2467 4.55729 11.3021C4.2513 11.3379 3.86068 11.4486 3.51563 11.5365C3.48958 11.4323 3.45703 11.3314 3.4375 11.224C3.80208 11.1458 4.2806 11.0677 4.55729 11.0677ZM15.7031 11.25C16.0352 11.2533 16.3379 11.3086 16.5365 11.3542C16.5267 11.4095 16.4974 11.4551 16.4844 11.5104C16.2728 11.4616 15.9245 11.39 15.5208 11.3802C15.3255 11.377 15.013 11.3867 14.7396 11.4063C14.7526 11.3802 14.7559 11.3542 14.7656 11.3281C15.0488 11.2891 15.4102 11.2467 15.7031 11.25ZM5.07813 11.4844C5.54688 11.4876 5.98633 11.5202 6.17188 11.5365C6.60807 12.3503 7.49024 12.9525 8.85417 13.2031C8.51888 13.3887 8.2194 13.6491 7.99479 13.9583C7.79948 13.9746 7.5944 13.9844 7.39583 13.9844C6.81641 13.9844 6.45508 13.4668 6.14583 13.0208C5.83333 12.5749 5.44922 12.526 5.23438 12.5C5.01628 12.474 4.94141 12.5977 5.05208 12.6823C5.68685 13.1706 5.91471 13.75 6.17188 14.2708C6.403 14.7396 6.88802 15 7.42188 15H7.52604C7.50977 15.0912 7.5 15.1758 7.5 15.2604V16.1719C5.57617 15.3939 4.11133 13.75 3.56771 11.7188C3.90951 11.6341 4.29362 11.5462 4.58333 11.5104C4.7168 11.4941 4.88607 11.4811 5.07813 11.4844ZM15.5208 11.5885C15.8952 11.5983 16.2272 11.6699 16.4323 11.7188C15.9733 13.444 14.8405 14.8796 13.3333 15.7552V15.2604C13.3333 14.5508 12.7734 13.6393 11.9792 13.2031C13.2975 12.9622 14.1569 12.3861 14.6094 11.6146C14.9251 11.5918 15.2962 11.582 15.5208 11.5885ZM10.4167 15C10.6445 15 10.8333 15.1888 10.8333 15.4167V16.6146C10.5599 16.6504 10.2832 16.6667 10 16.6667V15.4167C10 15.1888 10.1888 15 10.4167 15ZM8.75 15.8333C8.97787 15.8333 9.16667 16.0221 9.16667 16.25V16.6146C8.88672 16.5788 8.60352 16.5267 8.33333 16.4583V16.25C8.33333 16.0221 8.52214 15.8333 8.75 15.8333ZM12.0833 15.8333C12.2852 15.8333 12.4609 15.9798 12.5 16.1719C12.2298 16.2826 11.9531 16.3835 11.6667 16.4583V16.25C11.6667 16.0221 11.8555 15.8333 12.0833 15.8333Z" fill="white"/>
</svg>
