<svg width="20" height="20" viewBox="0 0 20 20" fill="none" xmlns="http://www.w3.org/2000/svg">
<path d="M19.375 4.37498H0.625037C0.280023 4.37498 5.32569e-05 4.09496 5.32569e-05 3.75C5.32569e-05 3.40499 0.280075 3.12502 0.625037 3.12502H19.375C19.72 3.12502 20 3.40499 20 3.75C20 4.09501 19.72 4.37498 19.375 4.37498Z" fill="white"/>
<path d="M0.625037 9.37502H19.375C19.72 9.37502 20 9.65504 20 10C20 10.345 19.72 10.625 19.375 10.625H0.625037C0.280023 10.625 5.32569e-05 10.345 5.32569e-05 10C5.32569e-05 9.65504 0.280023 9.37502 0.625037 9.37502Z" fill="white"/>
<path d="M0.625037 15.625H19.375C19.72 15.625 20 15.905 20 16.25C20 16.595 19.72 16.875 19.375 16.875H0.625037C0.280023 16.875 5.32569e-05 16.5949 5.32569e-05 16.25C1.30483e-06 15.905 0.280023 15.625 0.625037 15.625Z" fill="white"/>
</svg>
