<svg width="75" height="36" viewBox="0 0 92 36" fill="none" xmlns="http://www.w3.org/2000/svg">
<mask id="mask0_48_3" style="mask-type:alpha" maskUnits="userSpaceOnUse" x="0" y="0" width="92" height="36">
<path fill-rule="evenodd" clip-rule="evenodd" d="M25.0113 2L25.661 3.75156C28.0768 10.2649 31.1878 14.7874 34.923 18.4493C38.6669 22.1197 43.055 24.9437 48.0796 28.0557L48.7565 28.4749L48.0782 28.8925C45.4448 30.5137 43.1197 31.1375 40.9869 31.2712C39.0851 31.3905 37.36 31.1155 35.8032 30.8674C35.6359 30.8407 35.4706 30.8144 35.3073 30.7889C33.5924 30.521 32.095 30.3449 30.5795 30.695C29.0837 31.0405 27.4757 31.9245 25.6467 33.9531L25.1363 34.5191L24.6275 33.9521C22.7994 31.915 21.1861 31.0236 19.6829 30.6739C18.1606 30.3198 16.6537 30.4948 14.9331 30.7666C14.7523 30.7952 14.5691 30.8248 14.3835 30.8548C12.8356 31.1054 11.1237 31.3824 9.24512 31.2808C7.11314 31.1654 4.79251 30.5679 2.17216 28.9807L1.48041 28.5617L2.16955 28.1397C12.2156 21.9891 20.3511 16.4722 24.4412 3.77029L25.0113 2ZM3.63177 28.546C5.76974 29.713 7.63653 30.1459 9.32824 30.2374C11.0317 30.3296 12.5792 30.0801 14.1414 29.8282C14.3254 29.7986 14.5096 29.7689 14.6943 29.7397C16.4158 29.4677 18.1893 29.24 20.0275 29.6676C21.7214 30.0616 23.3904 30.9899 25.1387 32.7856C26.8866 30.9988 28.5504 30.0778 30.2372 29.6882C32.0676 29.2654 33.8316 29.4942 35.5435 29.7616C35.7076 29.7872 35.8713 29.8132 36.0348 29.8391C37.6085 30.0891 39.168 30.3367 40.8906 30.2287C42.5864 30.1223 44.4648 29.6666 46.625 28.462C41.8811 25.5124 37.6216 22.7198 33.9519 19.1222C30.4242 15.6637 27.456 11.4768 25.092 5.70933C20.83 17.3021 12.9876 22.7899 3.63177 28.546Z" fill="black"/>
<path fill-rule="evenodd" clip-rule="evenodd" d="M48.4053 28.1228L47.9522 28.411C46.642 29.244 45.3429 29.5793 44.066 29.5133C42.7992 29.4477 41.6052 28.9898 40.4891 28.3146C40.081 28.0678 39.6794 27.7893 39.2841 27.486C38.1096 27.8773 36.9914 28.4282 35.8745 28.9786C35.804 29.0133 35.7336 29.048 35.6631 29.0827C33.9822 29.9097 32.2644 30.7313 30.4563 30.7733C28.7028 30.8141 26.9604 30.1284 25.1149 28.281C23.3517 30.1738 21.6439 30.9038 19.8947 30.911C18.0916 30.9184 16.345 30.1477 14.6346 29.3763C14.5792 29.3513 14.5238 29.3263 14.4684 29.3013C13.2889 28.7689 12.1079 28.2358 10.8713 27.8833C10.5034 28.1968 10.1293 28.4871 9.74879 28.7478C8.66437 29.4909 7.49497 30.0177 6.23406 30.1432C4.96074 30.27 3.64919 29.982 2.30467 29.1804L1.84735 28.9078L2.29333 28.6227C4.88594 26.9651 7.20568 26.5862 9.34055 26.8504C9.77623 26.9043 10.2027 26.985 10.6203 27.0859C12.1236 25.7283 13.5468 23.9667 14.9368 22.2464L14.9479 22.2326C15.8506 21.1154 16.7379 20.0189 17.6114 19.0907C18.4809 18.1666 19.363 17.3801 20.2657 16.903C21.1825 16.4184 22.1665 16.2321 23.1723 16.5898C23.9882 16.88 24.7542 17.5075 25.4949 18.493C26.0383 17.6054 26.641 17.0271 27.3331 16.7606C28.2198 16.419 29.1146 16.6349 29.9423 17.1025C30.7647 17.567 31.6012 18.3211 32.4477 19.2013C33.1837 19.9667 33.9479 20.85 34.7332 21.7577C34.8552 21.8986 34.9776 22.0402 35.1005 22.1819C36.4963 23.7916 37.9537 25.4294 39.4848 26.6789C39.9261 26.5509 40.3783 26.445 40.8421 26.3692C42.9597 26.0231 45.2878 26.3055 47.9381 27.8505L48.4053 28.1228ZM40.19 27.2217C40.4543 27.4124 40.7208 27.5901 40.9895 27.7527C42.0273 28.3805 43.0682 28.7632 44.119 28.8176C45.0154 28.864 45.9567 28.6734 46.9511 28.1424C44.692 26.9483 42.7537 26.7674 41.0066 27.053C40.7305 27.0981 40.4585 27.1549 40.19 27.2217ZM38.6295 26.9572C37.1242 25.6819 35.7168 24.0915 34.4124 22.5872C34.2884 22.4443 34.1654 22.302 34.0432 22.1609C33.2565 21.2515 32.5064 20.3846 31.7848 19.6343C30.9475 18.7635 30.176 18.0796 29.4642 17.6775C28.7577 17.2784 28.1924 17.199 27.6912 17.3921C27.1462 17.602 26.5408 18.1793 25.9278 19.3867L25.5855 20.0608L25.1653 19.4173C24.3257 18.1317 23.5426 17.4807 22.8373 17.2299C22.1685 16.9921 21.4852 17.0865 20.7223 17.4898C19.9451 17.9006 19.1349 18.6091 18.2797 19.5178C17.4285 20.4225 16.5586 21.4968 15.6519 22.619L15.5911 22.6942C14.3088 24.2814 12.949 25.9645 11.4923 27.3278C12.6742 27.6959 13.7834 28.197 14.8295 28.6695C14.9002 28.7014 14.9705 28.7332 15.0406 28.7648C16.795 29.5561 18.3451 30.2203 19.8904 30.2139C21.38 30.2078 22.9683 29.5694 24.7591 27.5058L25.091 27.1235L25.4385 27.4963C27.3187 29.5136 28.9384 30.1113 30.4324 30.0765C31.9815 30.0405 33.5077 29.3314 35.2295 28.4842C35.3123 28.4435 35.3954 28.4025 35.4789 28.3613C36.4678 27.8736 37.5133 27.3581 38.6295 26.9572ZM9.94974 27.6589C9.70745 27.6105 9.46265 27.5704 9.21494 27.5397C7.45272 27.3216 5.51291 27.583 3.28783 28.8822C4.30179 29.3864 5.24467 29.5396 6.13265 29.4512C7.17375 29.3476 8.19445 28.9064 9.20808 28.2118C9.45766 28.0408 9.70482 27.8559 9.94974 27.6589Z" fill="black"/>
<path fill-rule="evenodd" clip-rule="evenodd" d="M14.7779 28.5311C15.2617 28.7909 15.711 28.9292 16.131 28.9799C16.618 29.0388 17.0785 28.9816 17.5236 28.8457C18.4182 28.5727 19.2317 27.9899 20.0448 27.4073L20.0643 27.3933C20.4685 27.1037 20.8726 26.8155 21.2766 26.5805C21.6803 26.3456 22.0972 26.1559 22.531 26.0709C22.9708 25.9848 23.4218 26.0079 23.8817 26.1903C24.2798 26.3481 24.6742 26.6211 25.0726 27.0282C25.4711 26.6231 25.8653 26.3519 26.263 26.1957C26.7227 26.0151 27.173 25.9936 27.6119 26.0809C28.0446 26.1669 28.4605 26.3574 28.8633 26.5923C29.2662 26.8273 29.6696 27.1152 30.073 27.4036C30.8913 27.9886 31.7099 28.5737 32.6125 28.8408C33.0579 28.9727 33.5196 29.0253 34.0089 28.9609C34.4328 28.9051 34.887 28.7601 35.3766 28.4912C31.0081 25.7239 26.2353 20.916 25.0496 11.9779C23.9201 20.9224 19.1593 25.7828 14.7779 28.5311ZM14.2909 28.3969C18.9733 25.5301 24.2273 20.2101 24.8213 9.82848C24.8269 9.73121 24.924 9.65224 25.0421 9.65198C25.1604 9.65171 25.2579 9.73021 25.2641 9.82749C25.9263 20.2071 31.191 25.4645 35.8612 28.3569L36.0868 28.4967L35.8607 28.6359C35.238 29.0192 34.6452 29.2301 34.0756 29.3051C33.5053 29.3802 32.9712 29.3173 32.4695 29.1689C31.4917 28.8794 30.6224 28.2578 29.8291 27.6906L29.7959 27.6669C29.3892 27.3761 29.0018 27.1001 28.619 26.8768C28.2359 26.6533 27.8708 26.4909 27.5127 26.4197C27.1608 26.3498 26.8105 26.3667 26.445 26.5103C26.0741 26.656 25.6741 26.9375 25.2419 27.4168L25.0718 27.6055L24.9022 27.4165C24.4702 26.9351 24.0698 26.6516 23.6983 26.5043C23.3322 26.3592 22.9812 26.341 22.6287 26.41C22.27 26.4803 21.9042 26.642 21.5205 26.8652C21.137 27.0883 20.7489 27.3647 20.3418 27.6563C20.3249 27.6684 20.308 27.6805 20.2911 27.6927C19.5017 28.2584 18.6383 28.8772 17.6705 29.1726C17.1703 29.3252 16.6379 29.3934 16.0696 29.3248C15.5019 29.2562 14.9114 29.0525 14.2918 28.6772L14.0612 28.5375L14.2909 28.3969Z" fill="black"/>
<path fill-rule="evenodd" clip-rule="evenodd" d="M67.0113 2L67.661 3.75156C70.0768 10.2649 73.1878 14.7874 76.923 18.4493C80.6669 22.1197 85.055 24.9437 90.0796 28.0557L90.7565 28.4749L90.0782 28.8925C87.4448 30.5137 85.1197 31.1375 82.9869 31.2712C81.0851 31.3905 79.36 31.1155 77.8032 30.8674C77.6359 30.8407 77.4706 30.8144 77.3073 30.7889C75.5924 30.521 74.095 30.3449 72.5795 30.695C71.0837 31.0405 69.4757 31.9245 67.6467 33.9531L67.1363 34.5191L66.6275 33.9521C64.7994 31.915 63.1861 31.0236 61.6829 30.6739C60.1606 30.3198 58.6537 30.4948 56.9331 30.7666C56.7523 30.7952 56.5691 30.8248 56.3835 30.8548C54.8356 31.1054 53.1237 31.3824 51.2451 31.2808C49.1131 31.1654 46.7925 30.5679 44.1722 28.9807L43.4804 28.5617L44.1696 28.1397C54.2156 21.9891 62.3511 16.4722 66.4412 3.77029L67.0113 2ZM45.6318 28.546C47.7697 29.713 49.6365 30.1459 51.3282 30.2374C53.0317 30.3296 54.5792 30.0801 56.1414 29.8282C56.3254 29.7986 56.5096 29.7689 56.6943 29.7397C58.4158 29.4677 60.1893 29.24 62.0275 29.6676C63.7214 30.0616 65.3904 30.9899 67.1387 32.7856C68.8866 30.9988 70.5504 30.0778 72.2372 29.6882C74.0676 29.2654 75.8316 29.4942 77.5435 29.7616C77.7076 29.7872 77.8713 29.8132 78.0348 29.8391C79.6085 30.0891 81.168 30.3367 82.8906 30.2287C84.5864 30.1223 86.4648 29.6666 88.625 28.462C83.8811 25.5124 79.6216 22.7197 75.9519 19.1222C72.4242 15.6637 69.456 11.4768 67.092 5.70933C62.83 17.3021 54.9876 22.7899 45.6318 28.546Z" fill="black"/>
<path fill-rule="evenodd" clip-rule="evenodd" d="M90.4053 28.1228L89.9522 28.411C88.642 29.244 87.3429 29.5793 86.066 29.5133C84.7992 29.4477 83.6052 28.9898 82.4891 28.3146C82.081 28.0678 81.6794 27.7893 81.2841 27.486C80.1096 27.8773 78.9914 28.4282 77.8745 28.9786C77.804 29.0133 77.7336 29.048 77.6631 29.0827C75.9822 29.9097 74.2644 30.7313 72.4563 30.7733C70.7028 30.8141 68.9604 30.1284 67.1149 28.281C65.3517 30.1738 63.6439 30.9038 61.8947 30.911C60.0916 30.9184 58.345 30.1477 56.6346 29.3763C56.5792 29.3513 56.5238 29.3263 56.4684 29.3013C55.2889 28.7689 54.1079 28.2358 52.8713 27.8833C52.5034 28.1968 52.1293 28.4871 51.7488 28.7478C50.6644 29.4909 49.495 30.0177 48.234 30.1432C46.9607 30.27 45.6492 29.982 44.3047 29.1804L43.8473 28.9078L44.2933 28.6227C46.8859 26.9651 49.2057 26.5862 51.3405 26.8504C51.7762 26.9043 52.2027 26.985 52.6203 27.0859C54.1236 25.7283 55.5468 23.9667 56.9368 22.2464L56.9479 22.2326C57.8506 21.1154 58.7379 20.0189 59.6114 19.0907C60.4809 18.1666 61.363 17.3801 62.2657 16.903C63.1825 16.4184 64.1665 16.2321 65.1723 16.5898C65.9882 16.88 66.7542 17.5075 67.4949 18.493C68.0383 17.6054 68.641 17.0271 69.3331 16.7606C70.2198 16.419 71.1146 16.6349 71.9423 17.1025C72.7647 17.567 73.6012 18.3211 74.4477 19.2013C75.1837 19.9667 75.9479 20.85 76.7332 21.7577C76.8552 21.8986 76.9776 22.0402 77.1005 22.1819C78.4963 23.7916 79.9537 25.4294 81.4848 26.6789C81.9261 26.5509 82.3783 26.445 82.8421 26.3692C84.9597 26.0231 87.2878 26.3055 89.9381 27.8505L90.4053 28.1228ZM82.19 27.2217C82.4543 27.4124 82.7208 27.5901 82.9895 27.7527C84.0273 28.3805 85.0682 28.7632 86.119 28.8176C87.0154 28.864 87.9567 28.6734 88.9511 28.1424C86.692 26.9483 84.7537 26.7674 83.0066 27.053C82.7305 27.0981 82.4585 27.1549 82.19 27.2217ZM80.6295 26.9572C79.1242 25.6819 77.7168 24.0915 76.4124 22.5872C76.2884 22.4442 76.1654 22.302 76.0432 22.1609C75.2565 21.2515 74.5064 20.3846 73.7848 19.6343C72.9475 18.7635 72.176 18.0796 71.4642 17.6775C70.7577 17.2784 70.1924 17.199 69.6912 17.3921C69.1462 17.602 68.5408 18.1793 67.9278 19.3867L67.5855 20.0608L67.1653 19.4173C66.3257 18.1317 65.5426 17.4807 64.8373 17.2299C64.1685 16.9921 63.4852 17.0865 62.7223 17.4898C61.9451 17.9006 61.1349 18.6091 60.2797 19.5178C59.4285 20.4225 58.5586 21.4968 57.6519 22.619L57.5911 22.6942C56.3088 24.2814 54.949 25.9645 53.4923 27.3278C54.6742 27.6959 55.7834 28.197 56.8295 28.6695C56.9002 28.7014 56.9705 28.7332 57.0406 28.7648C58.795 29.5561 60.3451 30.2203 61.8904 30.2139C63.38 30.2078 64.9683 29.5694 66.7591 27.5058L67.091 27.1235L67.4385 27.4963C69.3187 29.5136 70.9384 30.1113 72.4324 30.0765C73.9815 30.0405 75.5077 29.3314 77.2295 28.4842C77.3123 28.4435 77.3954 28.4025 77.4789 28.3613C78.4678 27.8736 79.5133 27.3581 80.6295 26.9572ZM51.9497 27.6589C51.7074 27.6105 51.4626 27.5704 51.2149 27.5397C49.4527 27.3216 47.5129 27.583 45.2878 28.8822C46.3018 29.3864 47.2447 29.5396 48.1326 29.4512C49.1737 29.3476 50.1944 28.9064 51.2081 28.2118C51.4576 28.0408 51.7048 27.8559 51.9497 27.6589Z" fill="black"/>
<path fill-rule="evenodd" clip-rule="evenodd" d="M56.7779 28.5311C57.2617 28.7909 57.711 28.9292 58.131 28.9799C58.618 29.0388 59.0785 28.9816 59.5236 28.8457C60.4182 28.5727 61.2317 27.9899 62.0448 27.4073L62.0643 27.3933C62.4685 27.1037 62.8726 26.8155 63.2766 26.5805C63.6803 26.3456 64.0972 26.1559 64.531 26.0709C64.9708 25.9848 65.4218 26.0079 65.8817 26.1903C66.2798 26.3481 66.6742 26.6211 67.0726 27.0282C67.4711 26.6231 67.8653 26.3519 68.263 26.1957C68.7227 26.0151 69.173 25.9936 69.6119 26.0809C70.0446 26.1669 70.4605 26.3574 70.8633 26.5923C71.2662 26.8273 71.6696 27.1152 72.073 27.4036C72.8913 27.9886 73.7099 28.5737 74.6125 28.8408C75.0579 28.9727 75.5196 29.0253 76.0089 28.9609C76.4328 28.9051 76.887 28.7601 77.3766 28.4912C73.0081 25.7239 68.2353 20.916 67.0496 11.9779C65.9201 20.9224 61.1593 25.7828 56.7779 28.5311ZM56.2909 28.3969C60.9733 25.5301 66.2273 20.2101 66.8213 9.82848C66.8269 9.73121 66.924 9.65224 67.0421 9.65198C67.1604 9.65171 67.2579 9.73021 67.2641 9.82749C67.9263 20.2071 73.191 25.4645 77.8612 28.3569L78.0868 28.4967L77.8607 28.6359C77.238 29.0192 76.6452 29.2301 76.0756 29.3051C75.5053 29.3802 74.9712 29.3173 74.4695 29.1689C73.4917 28.8794 72.6224 28.2578 71.8291 27.6906L71.7959 27.6669C71.3892 27.3761 71.0018 27.1001 70.619 26.8768C70.2359 26.6533 69.8708 26.4909 69.5127 26.4197C69.1608 26.3498 68.8105 26.3667 68.445 26.5103C68.0741 26.656 67.6741 26.9375 67.2419 27.4168L67.0718 27.6055L66.9022 27.4165C66.4702 26.9351 66.0698 26.6516 65.6983 26.5043C65.3322 26.3592 64.9812 26.341 64.6287 26.41C64.27 26.4803 63.9042 26.642 63.5205 26.8652C63.137 27.0883 62.7489 27.3647 62.3418 27.6563C62.3249 27.6684 62.308 27.6805 62.2911 27.6927C61.5017 28.2584 60.6383 28.8772 59.6705 29.1726C59.1703 29.3252 58.6379 29.3934 58.0696 29.3248C57.5019 29.2562 56.9114 29.0525 56.2917 28.6772L56.0612 28.5375L56.2909 28.3969Z" fill="black"/>
<path fill-rule="evenodd" clip-rule="evenodd" d="M25.0113 2L25.661 3.75156C28.0768 10.2649 31.1878 14.7874 34.923 18.4493C38.6669 22.1197 43.055 24.9437 48.0796 28.0557L48.7565 28.4749L48.0782 28.8925C45.4448 30.5137 43.1197 31.1375 40.9869 31.2712C39.0851 31.3905 37.36 31.1155 35.8032 30.8674C35.6359 30.8407 35.4706 30.8144 35.3073 30.7889C33.5924 30.521 32.095 30.3449 30.5795 30.695C29.0837 31.0405 27.4757 31.9245 25.6467 33.9531L25.1363 34.5191L24.6275 33.9521C22.7994 31.915 21.1861 31.0236 19.6829 30.6739C18.1606 30.3198 16.6537 30.4948 14.9331 30.7666C14.7523 30.7952 14.5691 30.8248 14.3835 30.8548C12.8356 31.1054 11.1237 31.3824 9.24512 31.2808C7.11314 31.1654 4.79251 30.5679 2.17216 28.9807L1.48041 28.5617L2.16955 28.1397C12.2156 21.9891 20.3511 16.4722 24.4412 3.77029L25.0113 2ZM3.63177 28.546C5.76974 29.713 7.63653 30.1459 9.32824 30.2374C11.0317 30.3296 12.5792 30.0801 14.1414 29.8282C14.3254 29.7986 14.5096 29.7689 14.6943 29.7397C16.4158 29.4677 18.1893 29.24 20.0275 29.6676C21.7214 30.0616 23.3904 30.9899 25.1387 32.7856C26.8866 30.9988 28.5504 30.0778 30.2372 29.6882C32.0676 29.2654 33.8316 29.4942 35.5435 29.7616C35.7076 29.7872 35.8713 29.8132 36.0348 29.8391C37.6085 30.0891 39.168 30.3367 40.8906 30.2287C42.5864 30.1223 44.4648 29.6666 46.625 28.462C41.8811 25.5124 37.6216 22.7198 33.9519 19.1222C30.4242 15.6637 27.456 11.4768 25.092 5.70933C20.83 17.3021 12.9876 22.7899 3.63177 28.546Z" stroke="black" stroke-width="0.75"/>
<path fill-rule="evenodd" clip-rule="evenodd" d="M48.4053 28.1228L47.9522 28.411C46.642 29.244 45.3429 29.5793 44.066 29.5133C42.7992 29.4477 41.6052 28.9898 40.4891 28.3146C40.081 28.0678 39.6794 27.7893 39.2841 27.486C38.1096 27.8773 36.9914 28.4282 35.8745 28.9786C35.804 29.0133 35.7336 29.048 35.6631 29.0827C33.9822 29.9097 32.2644 30.7313 30.4563 30.7733C28.7028 30.8141 26.9604 30.1284 25.1149 28.281C23.3517 30.1738 21.6439 30.9038 19.8947 30.911C18.0916 30.9184 16.345 30.1477 14.6346 29.3763C14.5792 29.3513 14.5238 29.3263 14.4684 29.3013C13.2889 28.7689 12.1079 28.2358 10.8713 27.8833C10.5034 28.1968 10.1293 28.4871 9.74879 28.7478C8.66437 29.4909 7.49497 30.0177 6.23406 30.1432C4.96074 30.27 3.64919 29.982 2.30467 29.1804L1.84735 28.9078L2.29333 28.6227C4.88594 26.9651 7.20568 26.5862 9.34055 26.8504C9.77623 26.9043 10.2027 26.985 10.6203 27.0859C12.1236 25.7283 13.5468 23.9667 14.9368 22.2464L14.9479 22.2326C15.8506 21.1154 16.7379 20.0189 17.6114 19.0907C18.4809 18.1666 19.363 17.3801 20.2657 16.903C21.1825 16.4184 22.1665 16.2321 23.1723 16.5898C23.9882 16.88 24.7542 17.5075 25.4949 18.493C26.0383 17.6054 26.641 17.0271 27.3331 16.7606C28.2198 16.419 29.1146 16.6349 29.9423 17.1025C30.7647 17.567 31.6012 18.3211 32.4477 19.2013C33.1837 19.9667 33.9479 20.85 34.7332 21.7577C34.8552 21.8986 34.9776 22.0402 35.1005 22.1819C36.4963 23.7916 37.9537 25.4294 39.4848 26.6789C39.9261 26.5509 40.3783 26.445 40.8421 26.3692C42.9597 26.0231 45.2878 26.3055 47.9381 27.8505L48.4053 28.1228ZM40.19 27.2217C40.4543 27.4124 40.7208 27.5901 40.9895 27.7527C42.0273 28.3805 43.0682 28.7632 44.119 28.8176C45.0154 28.864 45.9567 28.6734 46.9511 28.1424C44.692 26.9483 42.7537 26.7674 41.0066 27.053C40.7305 27.0981 40.4585 27.1549 40.19 27.2217ZM38.6295 26.9572C37.1242 25.6819 35.7168 24.0915 34.4124 22.5872C34.2884 22.4443 34.1654 22.302 34.0432 22.1609C33.2565 21.2515 32.5064 20.3846 31.7848 19.6343C30.9475 18.7635 30.176 18.0796 29.4642 17.6775C28.7577 17.2784 28.1924 17.199 27.6912 17.3921C27.1462 17.602 26.5408 18.1793 25.9278 19.3867L25.5855 20.0608L25.1653 19.4173C24.3257 18.1317 23.5426 17.4807 22.8373 17.2299C22.1685 16.9921 21.4852 17.0865 20.7223 17.4898C19.9451 17.9006 19.1349 18.6091 18.2797 19.5178C17.4285 20.4225 16.5586 21.4968 15.6519 22.619L15.5911 22.6942C14.3088 24.2814 12.949 25.9645 11.4923 27.3278C12.6742 27.6959 13.7834 28.197 14.8295 28.6695C14.9002 28.7014 14.9705 28.7332 15.0406 28.7648C16.795 29.5561 18.3451 30.2203 19.8904 30.2139C21.38 30.2078 22.9683 29.5694 24.7591 27.5058L25.091 27.1235L25.4385 27.4963C27.3187 29.5136 28.9384 30.1113 30.4324 30.0765C31.9815 30.0405 33.5077 29.3314 35.2295 28.4842C35.3123 28.4435 35.3954 28.4025 35.4789 28.3613C36.4678 27.8736 37.5133 27.3581 38.6295 26.9572ZM9.94974 27.6589C9.70745 27.6105 9.46265 27.5704 9.21494 27.5397C7.45272 27.3216 5.51291 27.583 3.28783 28.8822C4.30179 29.3864 5.24467 29.5396 6.13265 29.4512C7.17375 29.3476 8.19445 28.9064 9.20808 28.2118C9.45766 28.0408 9.70482 27.8559 9.94974 27.6589Z" stroke="black" stroke-width="0.75"/>
<path fill-rule="evenodd" clip-rule="evenodd" d="M14.7779 28.5311C15.2617 28.7909 15.711 28.9292 16.131 28.9799C16.618 29.0388 17.0785 28.9816 17.5236 28.8457C18.4182 28.5727 19.2317 27.9899 20.0448 27.4073L20.0643 27.3933C20.4685 27.1037 20.8726 26.8155 21.2766 26.5805C21.6803 26.3456 22.0972 26.1559 22.531 26.0709C22.9708 25.9848 23.4218 26.0079 23.8817 26.1903C24.2798 26.3481 24.6742 26.6211 25.0726 27.0282C25.4711 26.6231 25.8653 26.3519 26.263 26.1957C26.7227 26.0151 27.173 25.9936 27.6119 26.0809C28.0446 26.1669 28.4605 26.3574 28.8633 26.5923C29.2662 26.8273 29.6696 27.1152 30.073 27.4036C30.8913 27.9886 31.7099 28.5737 32.6125 28.8408C33.0579 28.9727 33.5196 29.0253 34.0089 28.9609C34.4328 28.9051 34.887 28.7601 35.3766 28.4912C31.0081 25.7239 26.2353 20.916 25.0496 11.9779C23.9201 20.9224 19.1593 25.7828 14.7779 28.5311ZM14.2909 28.3969C18.9733 25.5301 24.2273 20.2101 24.8213 9.82848C24.8269 9.73121 24.924 9.65224 25.0421 9.65198C25.1604 9.65171 25.2579 9.73021 25.2641 9.82749C25.9263 20.2071 31.191 25.4645 35.8612 28.3569L36.0868 28.4967L35.8607 28.6359C35.238 29.0192 34.6452 29.2301 34.0756 29.3051C33.5053 29.3802 32.9712 29.3173 32.4695 29.1689C31.4917 28.8794 30.6224 28.2578 29.8291 27.6906L29.7959 27.6669C29.3892 27.3761 29.0018 27.1001 28.619 26.8768C28.2359 26.6533 27.8708 26.4909 27.5127 26.4197C27.1608 26.3498 26.8105 26.3667 26.445 26.5103C26.0741 26.656 25.6741 26.9375 25.2419 27.4168L25.0718 27.6055L24.9022 27.4165C24.4702 26.9351 24.0698 26.6516 23.6983 26.5043C23.3322 26.3592 22.9812 26.341 22.6287 26.41C22.27 26.4803 21.9042 26.642 21.5205 26.8652C21.137 27.0883 20.7489 27.3647 20.3418 27.6563C20.3249 27.6684 20.308 27.6805 20.2911 27.6927C19.5017 28.2584 18.6383 28.8772 17.6705 29.1726C17.1703 29.3252 16.6379 29.3934 16.0696 29.3248C15.5019 29.2562 14.9114 29.0525 14.2918 28.6772L14.0612 28.5375L14.2909 28.3969Z" stroke="black" stroke-width="0.75"/>
<path fill-rule="evenodd" clip-rule="evenodd" d="M67.0113 2L67.661 3.75156C70.0768 10.2649 73.1878 14.7874 76.923 18.4493C80.6669 22.1197 85.055 24.9437 90.0796 28.0557L90.7565 28.4749L90.0782 28.8925C87.4448 30.5137 85.1197 31.1375 82.9869 31.2712C81.0851 31.3905 79.36 31.1155 77.8032 30.8674C77.6359 30.8407 77.4706 30.8144 77.3073 30.7889C75.5924 30.521 74.095 30.3449 72.5795 30.695C71.0837 31.0405 69.4757 31.9245 67.6467 33.9531L67.1363 34.5191L66.6275 33.9521C64.7994 31.915 63.1861 31.0236 61.6829 30.6739C60.1606 30.3198 58.6537 30.4948 56.9331 30.7666C56.7523 30.7952 56.5691 30.8248 56.3835 30.8548C54.8356 31.1054 53.1237 31.3824 51.2451 31.2808C49.1131 31.1654 46.7925 30.5679 44.1722 28.9807L43.4804 28.5617L44.1696 28.1397C54.2156 21.9891 62.3511 16.4722 66.4412 3.77029L67.0113 2ZM45.6318 28.546C47.7697 29.713 49.6365 30.1459 51.3282 30.2374C53.0317 30.3296 54.5792 30.0801 56.1414 29.8282C56.3254 29.7986 56.5096 29.7689 56.6943 29.7397C58.4158 29.4677 60.1893 29.24 62.0275 29.6676C63.7214 30.0616 65.3904 30.9899 67.1387 32.7856C68.8866 30.9988 70.5504 30.0778 72.2372 29.6882C74.0676 29.2654 75.8316 29.4942 77.5435 29.7616C77.7076 29.7872 77.8713 29.8132 78.0348 29.8391C79.6085 30.0891 81.168 30.3367 82.8906 30.2287C84.5864 30.1223 86.4648 29.6666 88.625 28.462C83.8811 25.5124 79.6216 22.7197 75.9519 19.1222C72.4242 15.6637 69.456 11.4768 67.092 5.70933C62.83 17.3021 54.9876 22.7899 45.6318 28.546Z" stroke="black" stroke-width="0.75"/>
<path fill-rule="evenodd" clip-rule="evenodd" d="M90.4053 28.1228L89.9522 28.411C88.642 29.244 87.3429 29.5793 86.066 29.5133C84.7992 29.4477 83.6052 28.9898 82.4891 28.3146C82.081 28.0678 81.6794 27.7893 81.2841 27.486C80.1096 27.8773 78.9914 28.4282 77.8745 28.9786C77.804 29.0133 77.7336 29.048 77.6631 29.0827C75.9822 29.9097 74.2644 30.7313 72.4563 30.7733C70.7028 30.8141 68.9604 30.1284 67.1149 28.281C65.3517 30.1738 63.6439 30.9038 61.8947 30.911C60.0916 30.9184 58.345 30.1477 56.6346 29.3763C56.5792 29.3513 56.5238 29.3263 56.4684 29.3013C55.2889 28.7689 54.1079 28.2358 52.8713 27.8833C52.5034 28.1968 52.1293 28.4871 51.7488 28.7478C50.6644 29.4909 49.495 30.0177 48.234 30.1432C46.9607 30.27 45.6492 29.982 44.3047 29.1804L43.8473 28.9078L44.2933 28.6227C46.8859 26.9651 49.2057 26.5862 51.3405 26.8504C51.7762 26.9043 52.2027 26.985 52.6203 27.0859C54.1236 25.7283 55.5468 23.9667 56.9368 22.2464L56.9479 22.2326C57.8506 21.1154 58.7379 20.0189 59.6114 19.0907C60.4809 18.1666 61.363 17.3801 62.2657 16.903C63.1825 16.4184 64.1665 16.2321 65.1723 16.5898C65.9882 16.88 66.7542 17.5075 67.4949 18.493C68.0383 17.6054 68.641 17.0271 69.3331 16.7606C70.2198 16.419 71.1146 16.6349 71.9423 17.1025C72.7647 17.567 73.6012 18.3211 74.4477 19.2013C75.1837 19.9667 75.9479 20.85 76.7332 21.7577C76.8552 21.8986 76.9776 22.0402 77.1005 22.1819C78.4963 23.7916 79.9537 25.4294 81.4848 26.6789C81.9261 26.5509 82.3783 26.445 82.8421 26.3692C84.9597 26.0231 87.2878 26.3055 89.9381 27.8505L90.4053 28.1228ZM82.19 27.2217C82.4543 27.4124 82.7208 27.5901 82.9895 27.7527C84.0273 28.3805 85.0682 28.7632 86.119 28.8176C87.0154 28.864 87.9567 28.6734 88.9511 28.1424C86.692 26.9483 84.7537 26.7674 83.0066 27.053C82.7305 27.0981 82.4585 27.1549 82.19 27.2217ZM80.6295 26.9572C79.1242 25.6819 77.7168 24.0915 76.4124 22.5872C76.2884 22.4442 76.1654 22.302 76.0432 22.1609C75.2565 21.2515 74.5064 20.3846 73.7848 19.6343C72.9475 18.7635 72.176 18.0796 71.4642 17.6775C70.7577 17.2784 70.1924 17.199 69.6912 17.3921C69.1462 17.602 68.5408 18.1793 67.9278 19.3867L67.5855 20.0608L67.1653 19.4173C66.3257 18.1317 65.5426 17.4807 64.8373 17.2299C64.1685 16.9921 63.4852 17.0865 62.7223 17.4898C61.9451 17.9006 61.1349 18.6091 60.2797 19.5178C59.4285 20.4225 58.5586 21.4968 57.6519 22.619L57.5911 22.6942C56.3088 24.2814 54.949 25.9645 53.4923 27.3278C54.6742 27.6959 55.7834 28.197 56.8295 28.6695C56.9002 28.7014 56.9705 28.7332 57.0406 28.7648C58.795 29.5561 60.3451 30.2203 61.8904 30.2139C63.38 30.2078 64.9683 29.5694 66.7591 27.5058L67.091 27.1235L67.4385 27.4963C69.3187 29.5136 70.9384 30.1113 72.4324 30.0765C73.9815 30.0405 75.5077 29.3314 77.2295 28.4842C77.3123 28.4435 77.3954 28.4025 77.4789 28.3613C78.4678 27.8736 79.5133 27.3581 80.6295 26.9572ZM51.9497 27.6589C51.7074 27.6105 51.4626 27.5704 51.2149 27.5397C49.4527 27.3216 47.5129 27.583 45.2878 28.8822C46.3018 29.3864 47.2447 29.5396 48.1326 29.4512C49.1737 29.3476 50.1944 28.9064 51.2081 28.2118C51.4576 28.0408 51.7048 27.8559 51.9497 27.6589Z" stroke="black" stroke-width="0.75"/>
<path fill-rule="evenodd" clip-rule="evenodd" d="M56.7779 28.5311C57.2617 28.7909 57.711 28.9292 58.131 28.9799C58.618 29.0388 59.0785 28.9816 59.5236 28.8457C60.4182 28.5727 61.2317 27.9899 62.0448 27.4073L62.0643 27.3933C62.4685 27.1037 62.8726 26.8155 63.2766 26.5805C63.6803 26.3456 64.0972 26.1559 64.531 26.0709C64.9708 25.9848 65.4218 26.0079 65.8817 26.1903C66.2798 26.3481 66.6742 26.6211 67.0726 27.0282C67.4711 26.6231 67.8653 26.3519 68.263 26.1957C68.7227 26.0151 69.173 25.9936 69.6119 26.0809C70.0446 26.1669 70.4605 26.3574 70.8633 26.5923C71.2662 26.8273 71.6696 27.1152 72.073 27.4036C72.8913 27.9886 73.7099 28.5737 74.6125 28.8408C75.0579 28.9727 75.5196 29.0253 76.0089 28.9609C76.4328 28.9051 76.887 28.7601 77.3766 28.4912C73.0081 25.7239 68.2353 20.916 67.0496 11.9779C65.9201 20.9224 61.1593 25.7828 56.7779 28.5311ZM56.2909 28.3969C60.9733 25.5301 66.2273 20.2101 66.8213 9.82848C66.8269 9.73121 66.924 9.65224 67.0421 9.65198C67.1604 9.65171 67.2579 9.73021 67.2641 9.82749C67.9263 20.2071 73.191 25.4645 77.8612 28.3569L78.0868 28.4967L77.8607 28.6359C77.238 29.0192 76.6452 29.2301 76.0756 29.3051C75.5053 29.3802 74.9712 29.3173 74.4695 29.1689C73.4917 28.8794 72.6224 28.2578 71.8291 27.6906L71.7959 27.6669C71.3892 27.3761 71.0018 27.1001 70.619 26.8768C70.2359 26.6533 69.8708 26.4909 69.5127 26.4197C69.1608 26.3498 68.8105 26.3667 68.445 26.5103C68.0741 26.656 67.6741 26.9375 67.2419 27.4168L67.0718 27.6055L66.9022 27.4165C66.4702 26.9351 66.0698 26.6516 65.6983 26.5043C65.3322 26.3592 64.9812 26.341 64.6287 26.41C64.27 26.4803 63.9042 26.642 63.5205 26.8652C63.137 27.0883 62.7489 27.3647 62.3418 27.6563C62.3249 27.6684 62.308 27.6805 62.2911 27.6927C61.5017 28.2584 60.6383 28.8772 59.6705 29.1726C59.1703 29.3252 58.6379 29.3934 58.0696 29.3248C57.5019 29.2562 56.9114 29.0525 56.2917 28.6772L56.0612 28.5375L56.2909 28.3969Z" stroke="black" stroke-width="0.75"/>
</mask>
<g mask="url(#mask0_48_3)">
<path d="M92 36H0L3.14722e-06 0L92 8.04289e-06V36Z" fill="white"/>
</g>
</svg>
