<svg width="55" height="36" viewBox="0 0 55 36" fill="none"
    xmlns="http://www.w3.org/2000/svg">
    <mask id="mask0_5_374" style="mask-type:alpha" maskUnits="userSpaceOnUse" x="0" y="0" width="55" height="36">
        <path fill-rule="evenodd" clip-rule="evenodd" d="M27.2227 2L27.9517 3.7903C30.6626 10.4477 34.1534 15.0703 38.3447 18.8132C42.5458 22.5647 47.4697 25.4513 53.1078 28.6321L53.8673 29.0606L53.1062 29.4874C50.1513 31.1444 47.5423 31.782 45.149 31.9187C43.015 32.0406 41.0793 31.7596 39.3323 31.5059C39.1447 31.4787 38.9592 31.4518 38.7759 31.4257C36.8517 31.1519 35.1714 30.9719 33.4709 31.3297C31.7925 31.6829 29.9881 32.5865 27.9357 34.6599L27.363 35.2384L26.7921 34.6589C24.7408 32.5768 22.9305 31.6656 21.2438 31.3082C19.5356 30.9463 17.8447 31.1251 15.914 31.4029C15.7111 31.4321 15.5055 31.4624 15.2973 31.4931C13.5604 31.7492 11.6395 32.0324 9.53147 31.9285C7.13917 31.8105 4.53518 31.1998 1.59488 29.5775L0.818665 29.1492L1.59196 28.718C12.8647 22.4313 21.9935 16.7923 26.5831 3.80945L27.2227 2ZM3.23272 29.1332C5.63173 30.326 7.72647 30.7685 9.62474 30.862C11.5362 30.9563 13.2727 30.7012 15.0256 30.4438C15.2321 30.4135 15.4388 30.3831 15.646 30.3533C17.5778 30.0753 19.5677 29.8426 21.6304 30.2796C23.5311 30.6823 25.4039 31.6311 27.3657 33.4666C29.327 31.6402 31.194 30.6989 33.0867 30.3006C35.1407 29.8685 37.12 30.1023 39.041 30.3756C39.2251 30.4018 39.4087 30.4284 39.5923 30.4549C41.3581 30.7104 43.108 30.9635 45.041 30.8531C46.9438 30.7444 49.0516 30.2785 51.4756 29.0473C46.1524 26.0325 41.3728 23.1781 37.255 19.5009C33.2966 15.966 29.9659 11.6864 27.3133 5.79138C22.531 17.6406 13.7309 23.2498 3.23272 29.1332Z" fill="black"/>
        <path fill-rule="evenodd" clip-rule="evenodd" d="M53.4733 28.7007L52.9649 28.9952C51.4947 29.8467 50.037 30.1894 48.6041 30.1219C47.1827 30.0548 45.8429 29.5868 44.5905 28.8967C44.1326 28.6444 43.6819 28.3597 43.2384 28.0498C41.9205 28.4497 40.6658 29.0128 39.4124 29.5753C39.3334 29.6108 39.2543 29.6463 39.1752 29.6818C37.2891 30.5271 35.3615 31.3668 33.3327 31.4098C31.365 31.4515 29.4099 30.7506 27.3391 28.8623C25.3605 30.797 23.4443 31.5431 21.4814 31.5505C19.4581 31.558 17.4983 30.7704 15.579 29.9819C15.5169 29.9563 15.4547 29.9308 15.3926 29.9052C14.069 29.361 12.7439 28.8161 11.3563 28.4558C10.9434 28.7763 10.5236 29.073 10.0967 29.3395C8.87987 30.099 7.56768 30.6375 6.15281 30.7657C4.72402 30.8953 3.25232 30.601 1.74363 29.7817L1.23047 29.503L1.7309 29.2115C4.64007 27.5173 7.24307 27.13 9.63861 27.4001C10.1275 27.4552 10.606 27.5377 11.0747 27.6408C12.7614 26.2531 14.3585 24.4526 15.9182 22.6942L15.9306 22.6802C16.9436 21.5382 17.9392 20.4175 18.9193 19.4687C19.8951 18.5242 20.8848 17.7203 21.8977 17.2327C22.9265 16.7374 24.0306 16.547 25.1593 16.9126C26.0748 17.2091 26.9343 17.8505 27.7654 18.8578C28.3752 17.9506 29.0515 17.3595 29.8281 17.0871C30.8231 16.738 31.8272 16.9586 32.7559 17.4366C33.6787 17.9114 34.6174 18.6821 35.5672 19.5818C36.3931 20.3641 37.2506 21.2669 38.1318 22.1948C38.2686 22.3388 38.406 22.4834 38.5439 22.6283C40.1102 24.2736 41.7455 25.9477 43.4636 27.2248C43.9587 27.094 44.4661 26.9858 44.9866 26.9083C47.3628 26.5545 49.9752 26.8432 52.949 28.4223L53.4733 28.7007ZM44.2549 27.7796C44.5515 27.9745 44.8505 28.1561 45.152 28.3223C46.3165 28.964 47.4845 29.3552 48.6636 29.4108C49.6694 29.4582 50.7257 29.2634 51.8415 28.7207C49.3066 27.5002 47.1316 27.3153 45.1712 27.6072C44.8614 27.6533 44.5562 27.7113 44.2549 27.7796ZM42.5038 27.5092C40.8147 26.2058 39.2355 24.5802 37.7718 23.0426C37.6327 22.8965 37.4946 22.7511 37.3576 22.6068C36.4747 21.6774 35.6331 20.7913 34.8234 20.0244C33.8838 19.1343 33.0181 18.4352 32.2194 18.0242C31.4267 17.6163 30.7923 17.5352 30.2299 17.7325C29.6184 17.9471 28.9391 18.5372 28.2512 19.7712L27.8671 20.4603L27.3956 19.8026C26.4535 18.4885 25.5748 17.8231 24.7833 17.5667C24.0329 17.3237 23.2662 17.4202 22.4101 17.8324C21.538 18.2523 20.6288 18.9765 19.6693 19.9053C18.7141 20.83 17.738 21.928 16.7206 23.0751L16.6524 23.152C15.2135 24.7743 13.6877 26.4946 12.0531 27.888C13.3793 28.2643 14.624 28.7764 15.7978 29.2594C15.8771 29.2921 15.956 29.3245 16.0346 29.3568C18.0033 30.1656 19.7426 30.8445 21.4767 30.838C23.1481 30.8317 24.9304 30.1792 26.9399 28.07L27.3122 27.6792L27.7021 28.0603C29.8119 30.1222 31.6294 30.7331 33.3059 30.6976C35.0441 30.6608 36.7566 29.936 38.6887 29.07C38.7816 29.0284 38.8748 28.9865 38.9686 28.9444C40.0782 28.446 41.2513 27.919 42.5038 27.5092ZM10.3222 28.2265C10.0503 28.177 9.77562 28.136 9.49767 28.1047C7.52027 27.8817 5.34361 28.1489 2.84684 29.4768C3.9846 29.9922 5.04261 30.1487 6.03902 30.0584C7.20724 29.9525 8.35257 29.5015 9.48997 28.7916C9.77002 28.6168 10.0473 28.4278 10.3222 28.2265Z" fill="black"/>
        <path fill-rule="evenodd" clip-rule="evenodd" d="M15.7399 29.118C16.2827 29.3836 16.7868 29.5249 17.2581 29.5768C17.8046 29.637 18.3214 29.5785 18.8208 29.4397C19.8247 29.1606 20.7375 28.5649 21.6498 27.9694L21.6717 27.9551C22.1253 27.6591 22.5788 27.3645 23.032 27.1243C23.4851 26.8843 23.9529 26.6903 24.4395 26.6035C24.9331 26.5155 25.4392 26.5391 25.9552 26.7255C26.4019 26.8868 26.8445 27.1658 27.2915 27.5819C27.7387 27.1679 28.181 26.8907 28.6273 26.731C29.1431 26.5464 29.6484 26.5245 30.1409 26.6137C30.6265 26.7016 31.0931 26.8962 31.5451 27.1364C31.9972 27.3766 32.4498 27.6708 32.9026 27.9656C33.8207 28.5636 34.7393 29.1616 35.7521 29.4347C36.2519 29.5694 36.77 29.6232 37.319 29.5574C37.7947 29.5003 38.3043 29.3521 38.8537 29.0773C33.9517 26.2488 28.5962 21.3346 27.2658 12.1987C25.9984 21.3411 20.6562 26.3089 15.7399 29.118ZM15.1933 28.9809C20.4475 26.0507 26.3431 20.613 27.0096 10.0017C27.0158 9.90229 27.1248 9.82156 27.2574 9.82129C27.39 9.82102 27.4995 9.90124 27.5065 10.0007C28.2494 20.61 34.157 25.9836 39.3974 28.9401L39.6506 29.0829L39.3969 29.2252C38.6981 29.617 38.0329 29.8325 37.3938 29.9092C36.7539 29.9859 36.1546 29.9217 35.5917 29.7699C34.4944 29.4741 33.519 28.8388 32.6288 28.259L32.5916 28.2347C32.1352 27.9375 31.7005 27.6554 31.2709 27.4271C30.8411 27.1988 30.4314 27.0327 30.0296 26.96C29.6347 26.8885 29.2416 26.9058 28.8315 27.0526C28.4153 27.2015 27.9665 27.4893 27.4815 27.9792L27.2906 28.172L27.1003 27.9788C26.6156 27.4868 26.1663 27.197 25.7495 27.0465C25.3386 26.8981 24.9448 26.8795 24.5492 26.9501C24.1468 27.0219 23.7363 27.1872 23.3057 27.4154C22.8753 27.6434 22.4399 27.9258 21.9831 28.224C21.9641 28.2363 21.9452 28.2487 21.9262 28.2611C21.0405 28.8393 20.0716 29.4718 18.9856 29.7738C18.4244 29.9298 17.8269 29.9995 17.1893 29.9293C16.5522 29.8592 15.8896 29.651 15.1943 29.2674L14.9356 29.1246L15.1933 28.9809Z" fill="black"/>
        <path fill-rule="evenodd" clip-rule="evenodd" d="M27.2227 2L27.9517 3.7903C30.6626 10.4477 34.1534 15.0703 38.3447 18.8132C42.5458 22.5647 47.4697 25.4513 53.1078 28.6321L53.8673 29.0606L53.1062 29.4874C50.1513 31.1444 47.5423 31.782 45.149 31.9187C43.015 32.0406 41.0793 31.7596 39.3323 31.5059C39.1447 31.4787 38.9592 31.4518 38.7759 31.4257C36.8517 31.1519 35.1714 30.9719 33.4709 31.3297C31.7925 31.6829 29.9881 32.5865 27.9357 34.6599L27.363 35.2384L26.7921 34.6589C24.7408 32.5768 22.9305 31.6656 21.2438 31.3082C19.5356 30.9463 17.8447 31.1251 15.914 31.4029C15.7111 31.4321 15.5055 31.4624 15.2973 31.4931C13.5604 31.7492 11.6395 32.0324 9.53147 31.9285C7.13917 31.8105 4.53518 31.1998 1.59488 29.5775L0.818665 29.1492L1.59196 28.718C12.8647 22.4313 21.9935 16.7923 26.5831 3.80945L27.2227 2ZM3.23272 29.1332C5.63173 30.326 7.72647 30.7685 9.62474 30.862C11.5362 30.9563 13.2727 30.7012 15.0256 30.4438C15.2321 30.4135 15.4388 30.3831 15.646 30.3533C17.5778 30.0753 19.5677 29.8426 21.6304 30.2796C23.5311 30.6823 25.4039 31.6311 27.3657 33.4666C29.327 31.6402 31.194 30.6989 33.0867 30.3006C35.1407 29.8685 37.12 30.1023 39.041 30.3756C39.2251 30.4018 39.4087 30.4284 39.5923 30.4549C41.3581 30.7104 43.108 30.9635 45.041 30.8531C46.9438 30.7444 49.0516 30.2785 51.4756 29.0473C46.1524 26.0325 41.3728 23.1781 37.255 19.5009C33.2966 15.966 29.9659 11.6864 27.3133 5.79138C22.531 17.6406 13.7309 23.2498 3.23272 29.1332Z" stroke="black" stroke-width="0.75"/>
        <path fill-rule="evenodd" clip-rule="evenodd" d="M53.4733 28.7007L52.9649 28.9952C51.4947 29.8467 50.037 30.1894 48.6041 30.1219C47.1827 30.0548 45.8429 29.5868 44.5905 28.8967C44.1326 28.6444 43.6819 28.3597 43.2384 28.0498C41.9205 28.4497 40.6658 29.0128 39.4124 29.5753C39.3334 29.6108 39.2543 29.6463 39.1752 29.6818C37.2891 30.5271 35.3615 31.3668 33.3327 31.4098C31.365 31.4515 29.4099 30.7506 27.3391 28.8623C25.3605 30.797 23.4443 31.5431 21.4814 31.5505C19.4581 31.558 17.4983 30.7704 15.579 29.9819C15.5169 29.9563 15.4547 29.9308 15.3926 29.9052C14.069 29.361 12.7439 28.8161 11.3563 28.4558C10.9434 28.7763 10.5236 29.073 10.0967 29.3395C8.87987 30.099 7.56768 30.6375 6.15281 30.7657C4.72402 30.8953 3.25232 30.601 1.74363 29.7817L1.23047 29.503L1.7309 29.2115C4.64007 27.5173 7.24307 27.13 9.63861 27.4001C10.1275 27.4552 10.606 27.5377 11.0747 27.6408C12.7614 26.2531 14.3585 24.4526 15.9182 22.6942L15.9306 22.6802C16.9436 21.5382 17.9392 20.4175 18.9193 19.4687C19.8951 18.5242 20.8848 17.7203 21.8977 17.2327C22.9265 16.7374 24.0306 16.547 25.1593 16.9126C26.0748 17.2091 26.9343 17.8505 27.7654 18.8578C28.3752 17.9506 29.0515 17.3595 29.8281 17.0871C30.8231 16.738 31.8272 16.9586 32.7559 17.4366C33.6787 17.9114 34.6174 18.6821 35.5672 19.5818C36.3931 20.3641 37.2506 21.2669 38.1318 22.1948C38.2686 22.3388 38.406 22.4834 38.5439 22.6283C40.1102 24.2736 41.7455 25.9477 43.4636 27.2248C43.9587 27.094 44.4661 26.9858 44.9866 26.9083C47.3628 26.5545 49.9752 26.8432 52.949 28.4223L53.4733 28.7007ZM44.2549 27.7796C44.5515 27.9745 44.8505 28.1561 45.152 28.3223C46.3165 28.964 47.4845 29.3552 48.6636 29.4108C49.6694 29.4582 50.7257 29.2634 51.8415 28.7207C49.3066 27.5002 47.1316 27.3153 45.1712 27.6072C44.8614 27.6533 44.5562 27.7113 44.2549 27.7796ZM42.5038 27.5092C40.8147 26.2058 39.2355 24.5802 37.7718 23.0426C37.6327 22.8965 37.4946 22.7511 37.3576 22.6068C36.4747 21.6774 35.6331 20.7913 34.8234 20.0244C33.8838 19.1343 33.0181 18.4352 32.2194 18.0242C31.4267 17.6163 30.7923 17.5352 30.2299 17.7325C29.6184 17.9471 28.9391 18.5372 28.2512 19.7712L27.8671 20.4603L27.3956 19.8026C26.4535 18.4885 25.5748 17.8231 24.7833 17.5667C24.0329 17.3237 23.2662 17.4202 22.4101 17.8324C21.538 18.2523 20.6288 18.9765 19.6693 19.9053C18.7141 20.83 17.738 21.928 16.7206 23.0751L16.6524 23.152C15.2135 24.7743 13.6877 26.4946 12.0531 27.888C13.3793 28.2643 14.624 28.7764 15.7978 29.2594C15.8771 29.2921 15.956 29.3245 16.0346 29.3568C18.0033 30.1656 19.7426 30.8445 21.4767 30.838C23.1481 30.8317 24.9304 30.1792 26.9399 28.07L27.3122 27.6792L27.7021 28.0603C29.8119 30.1222 31.6294 30.7331 33.3059 30.6976C35.0441 30.6608 36.7566 29.936 38.6887 29.07C38.7816 29.0284 38.8748 28.9865 38.9686 28.9444C40.0782 28.446 41.2513 27.919 42.5038 27.5092ZM10.3222 28.2265C10.0503 28.177 9.77562 28.136 9.49767 28.1047C7.52027 27.8817 5.34361 28.1489 2.84684 29.4768C3.9846 29.9922 5.04261 30.1487 6.03902 30.0584C7.20724 29.9525 8.35257 29.5015 9.48997 28.7916C9.77002 28.6168 10.0473 28.4278 10.3222 28.2265Z" stroke="black" stroke-width="0.75"/>
        <path fill-rule="evenodd" clip-rule="evenodd" d="M15.7399 29.118C16.2827 29.3836 16.7868 29.5249 17.2581 29.5768C17.8046 29.637 18.3214 29.5785 18.8208 29.4397C19.8247 29.1606 20.7375 28.5649 21.6498 27.9694L21.6717 27.9551C22.1253 27.6591 22.5788 27.3645 23.032 27.1243C23.4851 26.8843 23.9529 26.6903 24.4395 26.6035C24.9331 26.5155 25.4392 26.5391 25.9552 26.7255C26.4019 26.8868 26.8445 27.1658 27.2915 27.5819C27.7387 27.1679 28.181 26.8907 28.6273 26.731C29.1431 26.5464 29.6484 26.5245 30.1409 26.6137C30.6265 26.7016 31.0931 26.8962 31.5451 27.1364C31.9972 27.3766 32.4498 27.6708 32.9026 27.9656C33.8207 28.5636 34.7393 29.1616 35.7521 29.4347C36.2519 29.5694 36.77 29.6232 37.319 29.5574C37.7947 29.5003 38.3043 29.3521 38.8537 29.0773C33.9517 26.2488 28.5962 21.3346 27.2658 12.1987C25.9984 21.3411 20.6562 26.3089 15.7399 29.118ZM15.1933 28.9809C20.4475 26.0507 26.3431 20.613 27.0096 10.0017C27.0158 9.90229 27.1248 9.82156 27.2574 9.82129C27.39 9.82102 27.4995 9.90124 27.5065 10.0007C28.2494 20.61 34.157 25.9836 39.3974 28.9401L39.6506 29.0829L39.3969 29.2252C38.6981 29.617 38.0329 29.8325 37.3938 29.9092C36.7539 29.9859 36.1546 29.9217 35.5917 29.7699C34.4944 29.4741 33.519 28.8388 32.6288 28.259L32.5916 28.2347C32.1352 27.9375 31.7005 27.6554 31.2709 27.4271C30.8411 27.1988 30.4314 27.0327 30.0296 26.96C29.6347 26.8885 29.2416 26.9058 28.8315 27.0526C28.4153 27.2015 27.9665 27.4893 27.4815 27.9792L27.2906 28.172L27.1003 27.9788C26.6156 27.4868 26.1663 27.197 25.7495 27.0465C25.3386 26.8981 24.9448 26.8795 24.5492 26.9501C24.1468 27.0219 23.7363 27.1872 23.3057 27.4154C22.8753 27.6434 22.4399 27.9258 21.9831 28.224C21.9641 28.2363 21.9452 28.2487 21.9262 28.2611C21.0405 28.8393 20.0716 29.4718 18.9856 29.7738C18.4244 29.9298 17.8269 29.9995 17.1893 29.9293C16.5522 29.8592 15.8896 29.651 15.1943 29.2674L14.9356 29.1246L15.1933 28.9809Z" stroke="black" stroke-width="0.75"/>
    </mask>
    <g mask="url(#mask0_5_374)">
        <path d="M55.3864 36.9988H-1.35883V-0.290894L55.3864 -0.290889V36.9988Z" fill="url(#paint0_linear_5_374)"/>
    </g>
    <defs>
        <linearGradient id="paint0_linear_5_374" x1="-1.18" y1="18.354" x2="55.2076" y2="18.354" gradientUnits="userSpaceOnUse">
            <stop stop-color="#01AEFF"/>
            <stop offset="1" stop-color="#FF01A1"/>
        </linearGradient>
    </defs>
</svg>
