<svg width="84" height="51" viewBox="0 0 84 51" fill="none"
    xmlns="http://www.w3.org/2000/svg">
    <path d="M11.4119 32C11.3627 31.3845 11.1319 30.9044 10.7195 30.5597C10.3132 30.215 9.69461 30.0426 8.86365 30.0426C8.33429 30.0426 7.90034 30.1073 7.5618 30.2365C7.22941 30.3596 6.9832 30.5289 6.82316 30.7443C6.66313 30.9598 6.58003 31.206 6.57387 31.483C6.56156 31.7107 6.60157 31.9169 6.6939 32.1016C6.79239 32.2801 6.94627 32.4432 7.15555 32.5909C7.36483 32.7325 7.63259 32.8618 7.95882 32.9787C8.28505 33.0957 8.67283 33.2003 9.12217 33.2926L10.6733 33.625C11.7197 33.8466 12.6153 34.139 13.3601 34.5021C14.1049 34.8653 14.7143 35.2931 15.1882 35.7855C15.6622 36.2718 16.01 36.8196 16.2315 37.429C16.4593 38.0384 16.5762 38.7031 16.5824 39.4233C16.5762 40.6667 16.2654 41.7192 15.6499 42.581C15.0343 43.4427 14.1541 44.0983 13.0092 44.5476C11.8705 44.9969 10.501 45.2216 8.90058 45.2216C7.25711 45.2216 5.82293 44.9785 4.59802 44.4922C3.37927 44.0059 2.43136 43.2581 1.75427 42.2486C1.08334 41.233 0.744803 39.9342 0.738647 38.3523H5.61365C5.64442 38.9309 5.78907 39.4172 6.0476 39.8111C6.30612 40.205 6.66928 40.5036 7.13708 40.7067C7.61104 40.9098 8.17425 41.0114 8.82672 41.0114C9.37454 41.0114 9.83311 40.9437 10.2024 40.8083C10.5717 40.6728 10.8518 40.4851 11.0426 40.245C11.2334 40.005 11.3319 39.7311 11.3381 39.4233C11.3319 39.134 11.2365 38.8816 11.0519 38.6662C10.8734 38.4446 10.5779 38.2476 10.1655 38.0753C9.75309 37.8968 9.19603 37.7306 8.49433 37.5767L6.61081 37.1705C4.93656 36.8073 3.61625 36.201 2.64987 35.3516C1.68964 34.496 1.21261 33.3296 1.21876 31.8523C1.21261 30.652 1.53268 29.6025 2.17899 28.7038C2.83145 27.799 3.7332 27.0942 4.88424 26.5895C6.04144 26.0848 7.36791 25.8324 8.86365 25.8324C10.3902 25.8324 11.7105 26.0878 12.8246 26.5987C13.9387 27.1096 14.7974 27.8298 15.4006 28.7592C16.01 29.6825 16.3177 30.7628 16.3239 32H11.4119Z" fill="#193643"/>
    <path d="M11.4119 32C11.3627 31.3845 11.1319 30.9044 10.7195 30.5597C10.3132 30.215 9.69461 30.0426 8.86365 30.0426C8.33429 30.0426 7.90034 30.1073 7.5618 30.2365C7.22941 30.3596 6.9832 30.5289 6.82316 30.7443C6.66313 30.9598 6.58003 31.206 6.57387 31.483C6.56156 31.7107 6.60157 31.9169 6.6939 32.1016C6.79239 32.2801 6.94627 32.4432 7.15555 32.5909C7.36483 32.7325 7.63259 32.8618 7.95882 32.9787C8.28505 33.0957 8.67283 33.2003 9.12217 33.2926L10.6733 33.625C11.7197 33.8466 12.6153 34.139 13.3601 34.5021C14.1049 34.8653 14.7143 35.2931 15.1882 35.7855C15.6622 36.2718 16.01 36.8196 16.2315 37.429C16.4593 38.0384 16.5762 38.7031 16.5824 39.4233C16.5762 40.6667 16.2654 41.7192 15.6499 42.581C15.0343 43.4427 14.1541 44.0983 13.0092 44.5476C11.8705 44.9969 10.501 45.2216 8.90058 45.2216C7.25711 45.2216 5.82293 44.9785 4.59802 44.4922C3.37927 44.0059 2.43136 43.2581 1.75427 42.2486C1.08334 41.233 0.744803 39.9342 0.738647 38.3523H5.61365C5.64442 38.9309 5.78907 39.4172 6.0476 39.8111C6.30612 40.205 6.66928 40.5036 7.13708 40.7067C7.61104 40.9098 8.17425 41.0114 8.82672 41.0114C9.37454 41.0114 9.83311 40.9437 10.2024 40.8083C10.5717 40.6728 10.8518 40.4851 11.0426 40.245C11.2334 40.005 11.3319 39.7311 11.3381 39.4233C11.3319 39.134 11.2365 38.8816 11.0519 38.6662C10.8734 38.4446 10.5779 38.2476 10.1655 38.0753C9.75309 37.8968 9.19603 37.7306 8.49433 37.5767L6.61081 37.1705C4.93656 36.8073 3.61625 36.201 2.64987 35.3516C1.68964 34.496 1.21261 33.3296 1.21876 31.8523C1.21261 30.652 1.53268 29.6025 2.17899 28.7038C2.83145 27.799 3.7332 27.0942 4.88424 26.5895C6.04144 26.0848 7.36791 25.8324 8.86365 25.8324C10.3902 25.8324 11.7105 26.0878 12.8246 26.5987C13.9387 27.1096 14.7974 27.8298 15.4006 28.7592C16.01 29.6825 16.3177 30.7628 16.3239 32H11.4119Z" fill="url(#paint0_linear_5_419)"/>
    <path d="M25.4414 45.2585C23.9026 45.2585 22.5854 44.9538 21.4897 44.3445C20.3941 43.7289 19.5539 42.8734 18.9691 41.7777C18.3844 40.6759 18.092 39.3987 18.092 37.946C18.092 36.4934 18.3844 35.2192 18.9691 34.1236C19.5539 33.0218 20.3941 32.1662 21.4897 31.5568C22.5854 30.9413 23.9026 30.6335 25.4414 30.6335C26.9802 30.6335 28.2975 30.9413 29.3931 31.5568C30.4888 32.1662 31.329 33.0218 31.9137 34.1236C32.4985 35.2192 32.7909 36.4934 32.7909 37.946C32.7909 39.3987 32.4985 40.6759 31.9137 41.7777C31.329 42.8734 30.4888 43.7289 29.3931 44.3445C28.2975 44.9538 26.9802 45.2585 25.4414 45.2585ZM25.4783 41.4915C25.9092 41.4915 26.2816 41.3468 26.5955 41.0575C26.9095 40.7682 27.1526 40.3558 27.3249 39.8203C27.4973 39.2848 27.5835 38.6477 27.5835 37.9091C27.5835 37.1643 27.4973 36.5272 27.3249 35.9979C27.1526 35.4624 26.9095 35.05 26.5955 34.7607C26.2816 34.4714 25.9092 34.3267 25.4783 34.3267C25.0229 34.3267 24.632 34.4714 24.3058 34.7607C23.9795 35.05 23.7302 35.4624 23.5579 35.9979C23.3855 36.5272 23.2994 37.1643 23.2994 37.9091C23.2994 38.6477 23.3855 39.2848 23.5579 39.8203C23.7302 40.3558 23.9795 40.7682 24.3058 41.0575C24.632 41.3468 25.0229 41.4915 25.4783 41.4915Z" fill="#193643"/>
    <path d="M25.4414 45.2585C23.9026 45.2585 22.5854 44.9538 21.4897 44.3445C20.3941 43.7289 19.5539 42.8734 18.9691 41.7777C18.3844 40.6759 18.092 39.3987 18.092 37.946C18.092 36.4934 18.3844 35.2192 18.9691 34.1236C19.5539 33.0218 20.3941 32.1662 21.4897 31.5568C22.5854 30.9413 23.9026 30.6335 25.4414 30.6335C26.9802 30.6335 28.2975 30.9413 29.3931 31.5568C30.4888 32.1662 31.329 33.0218 31.9137 34.1236C32.4985 35.2192 32.7909 36.4934 32.7909 37.946C32.7909 39.3987 32.4985 40.6759 31.9137 41.7777C31.329 42.8734 30.4888 43.7289 29.3931 44.3445C28.2975 44.9538 26.9802 45.2585 25.4414 45.2585ZM25.4783 41.4915C25.9092 41.4915 26.2816 41.3468 26.5955 41.0575C26.9095 40.7682 27.1526 40.3558 27.3249 39.8203C27.4973 39.2848 27.5835 38.6477 27.5835 37.9091C27.5835 37.1643 27.4973 36.5272 27.3249 35.9979C27.1526 35.4624 26.9095 35.05 26.5955 34.7607C26.2816 34.4714 25.9092 34.3267 25.4783 34.3267C25.0229 34.3267 24.632 34.4714 24.3058 34.7607C23.9795 35.05 23.7302 35.4624 23.5579 35.9979C23.3855 36.5272 23.2994 37.1643 23.2994 37.9091C23.2994 38.6477 23.3855 39.2848 23.5579 39.8203C23.7302 40.3558 23.9795 40.7682 24.3058 41.0575C24.632 41.3468 25.0229 41.4915 25.4783 41.4915Z" fill="url(#paint1_linear_5_419)"/>
    <path d="M39.9556 26.0909V45H34.859V26.0909H39.9556Z" fill="#193643"/>
    <path d="M39.9556 26.0909V45H34.859V26.0909H39.9556Z" fill="url(#paint2_linear_5_419)"/>
    <path d="M56.845 30.8182L52.0808 45H46.1717L41.4075 30.8182H46.7626L49.0524 40.1989H49.2001L51.4899 30.8182H56.845Z" fill="#193643"/>
    <path d="M56.845 30.8182L52.0808 45H46.1717L41.4075 30.8182H46.7626L49.0524 40.1989H49.2001L51.4899 30.8182H56.845Z" fill="url(#paint3_linear_5_419)"/>
    <path d="M64.6584 45.2585C63.1442 45.2585 61.8393 44.9692 60.7436 44.3906C59.6541 43.8059 58.8139 42.9688 58.223 41.8793C57.6383 40.7836 57.3459 39.4725 57.3459 37.946C57.3459 36.4811 57.6413 35.2008 58.2323 34.1051C58.8232 33.0095 59.6572 32.157 60.7344 31.5476C61.8116 30.9382 63.0826 30.6335 64.5476 30.6335C65.6186 30.6335 66.5881 30.7997 67.456 31.1321C68.3239 31.4645 69.0656 31.9477 69.6811 32.5817C70.2967 33.2095 70.7706 33.9728 71.103 34.8715C71.4354 35.7701 71.6016 36.7827 71.6016 37.9091V39.0909H58.934V36.2841H66.9112C66.9051 35.8779 66.8004 35.5208 66.5973 35.2131C66.4003 34.8992 66.1326 34.656 65.794 34.4837C65.4617 34.3052 65.0831 34.2159 64.6584 34.2159C64.246 34.2159 63.8674 34.3052 63.5227 34.4837C63.178 34.656 62.9011 34.8961 62.6918 35.2038C62.4886 35.5116 62.3809 35.8717 62.3686 36.2841V39.3125C62.3686 39.768 62.464 40.1743 62.6548 40.5313C62.8457 40.8883 63.1196 41.1683 63.4766 41.3715C63.8336 41.5746 64.2645 41.6761 64.7692 41.6761C65.12 41.6761 65.4401 41.6269 65.7294 41.5284C66.0249 41.4299 66.2772 41.2884 66.4865 41.1037C66.6958 40.9129 66.8497 40.6851 66.9482 40.4205H71.6016C71.4415 41.4053 71.063 42.2609 70.4659 42.9872C69.8689 43.7074 69.0779 44.2675 68.093 44.6676C67.1144 45.0616 65.9695 45.2585 64.6584 45.2585Z" fill="#193643"/>
    <path d="M64.6584 45.2585C63.1442 45.2585 61.8393 44.9692 60.7436 44.3906C59.6541 43.8059 58.8139 42.9688 58.223 41.8793C57.6383 40.7836 57.3459 39.4725 57.3459 37.946C57.3459 36.4811 57.6413 35.2008 58.2323 34.1051C58.8232 33.0095 59.6572 32.157 60.7344 31.5476C61.8116 30.9382 63.0826 30.6335 64.5476 30.6335C65.6186 30.6335 66.5881 30.7997 67.456 31.1321C68.3239 31.4645 69.0656 31.9477 69.6811 32.5817C70.2967 33.2095 70.7706 33.9728 71.103 34.8715C71.4354 35.7701 71.6016 36.7827 71.6016 37.9091V39.0909H58.934V36.2841H66.9112C66.9051 35.8779 66.8004 35.5208 66.5973 35.2131C66.4003 34.8992 66.1326 34.656 65.794 34.4837C65.4617 34.3052 65.0831 34.2159 64.6584 34.2159C64.246 34.2159 63.8674 34.3052 63.5227 34.4837C63.178 34.656 62.9011 34.8961 62.6918 35.2038C62.4886 35.5116 62.3809 35.8717 62.3686 36.2841V39.3125C62.3686 39.768 62.464 40.1743 62.6548 40.5313C62.8457 40.8883 63.1196 41.1683 63.4766 41.3715C63.8336 41.5746 64.2645 41.6761 64.7692 41.6761C65.12 41.6761 65.4401 41.6269 65.7294 41.5284C66.0249 41.4299 66.2772 41.2884 66.4865 41.1037C66.6958 40.9129 66.8497 40.6851 66.9482 40.4205H71.6016C71.4415 41.4053 71.063 42.2609 70.4659 42.9872C69.8689 43.7074 69.0779 44.2675 68.093 44.6676C67.1144 45.0616 65.9695 45.2585 64.6584 45.2585Z" fill="url(#paint4_linear_5_419)"/>
    <path d="M73.6813 45V30.8182H78.6302V33.5142H78.7779C79.0364 32.5171 79.4457 31.7877 80.0059 31.326C80.5722 30.8644 81.2339 30.6335 81.991 30.6335C82.2126 30.6335 82.4311 30.652 82.6465 30.6889C82.8681 30.7197 83.0804 30.7659 83.2836 30.8274V35.1761C83.0312 35.09 82.7204 35.0253 82.351 34.9823C81.9817 34.9392 81.6647 34.9176 81.4 34.9176C80.9015 34.9176 80.4521 35.0315 80.052 35.2592C79.6581 35.4808 79.3473 35.7948 79.1195 36.201C78.8918 36.6011 78.7779 37.072 78.7779 37.6136V45H73.6813Z" fill="#193643"/>
    <path d="M73.6813 45V30.8182H78.6302V33.5142H78.7779C79.0364 32.5171 79.4457 31.7877 80.0059 31.326C80.5722 30.8644 81.2339 30.6335 81.991 30.6335C82.2126 30.6335 82.4311 30.652 82.6465 30.6889C82.8681 30.7197 83.0804 30.7659 83.2836 30.8274V35.1761C83.0312 35.09 82.7204 35.0253 82.351 34.9823C81.9817 34.9392 81.6647 34.9176 81.4 34.9176C80.9015 34.9176 80.4521 35.0315 80.052 35.2592C79.6581 35.4808 79.3473 35.7948 79.1195 36.201C78.8918 36.6011 78.7779 37.072 78.7779 37.6136V45H73.6813Z" fill="url(#paint5_linear_5_419)"/>
    <mask id="mask0_5_419" style="mask-type:alpha" maskUnits="userSpaceOnUse" x="-1" y="-1" width="86" height="26">
        <path fill-rule="evenodd" clip-rule="evenodd" d="M65.0707 0.545471L65.582 1.79164C67.4829 6.42564 69.9309 9.64325 72.8703 12.2485C75.8162 14.8599 79.2693 16.869 83.2232 19.0831L83.756 19.3814L83.222 19.6785C81.1499 20.8319 79.3204 21.2757 77.6419 21.3708C76.1454 21.4557 74.7879 21.2601 73.5629 21.0835C73.4313 21.0645 73.3012 21.0458 73.1726 21.0276C71.8233 20.8371 70.6449 20.7118 69.4525 20.9609C68.2753 21.2067 67.01 21.8356 65.5706 23.2789L65.1691 23.6816L64.7687 23.2782C63.3302 21.8289 62.0605 21.1946 60.8777 20.9459C59.68 20.6939 58.494 20.8184 57.14 21.0118C56.9979 21.0321 56.8536 21.0532 56.7077 21.0746C55.4897 21.2528 54.1424 21.4499 52.6642 21.3776C50.9866 21.2955 49.1603 20.8704 47.0985 19.7412L46.554 19.4431L47.0964 19.1429C55.0018 14.767 61.4034 10.8418 64.6222 1.80496L65.0707 0.545471ZM48.2469 19.432C49.9295 20.2622 51.3983 20.5702 52.7297 20.6353C54.0702 20.7009 55.2879 20.5234 56.5171 20.3442C56.6619 20.3231 56.8069 20.3019 56.952 20.2812C58.3069 20.0877 59.7023 19.9257 61.1488 20.2299C62.4819 20.5102 63.7951 21.1707 65.1708 22.4482C66.5462 21.177 67.8556 20.5218 69.1828 20.2446C70.6235 19.9437 72.0112 20.1065 73.3585 20.2967C73.4877 20.315 73.6163 20.3335 73.745 20.352C74.9835 20.5298 76.2106 20.706 77.5661 20.6291C78.9007 20.5534 80.3786 20.2292 82.0786 19.3721C78.3456 17.2736 74.9938 15.2868 72.1061 12.7272C69.3303 10.2667 66.9944 7.28784 65.1341 3.18452C61.7806 11.4323 55.6092 15.3367 48.2469 19.432Z" fill="black"/>
        <path fill-rule="evenodd" clip-rule="evenodd" d="M83.4796 19.1309L83.123 19.3358C82.0921 19.9286 81.0697 20.1671 80.065 20.1201C79.0681 20.0735 78.1286 19.7477 77.2504 19.2673C76.9291 19.0917 76.613 18.8936 76.302 18.6778C75.378 18.9562 74.4981 19.3481 73.619 19.7397C73.5635 19.7644 73.5083 19.7891 73.4528 19.8138C72.1299 20.4022 70.7783 20.9867 69.3556 21.0166C67.9757 21.0456 66.6044 20.5577 65.1523 19.2434C63.7648 20.59 62.4208 21.1094 61.0445 21.1145C59.6256 21.1198 58.2511 20.5715 56.9053 20.0226C56.8616 20.0049 56.8181 19.9871 56.7743 19.9693C55.8462 19.5905 54.9169 19.2112 53.9439 18.9604C53.6543 19.1835 53.36 19.39 53.0607 19.5755C52.2072 20.1042 51.287 20.479 50.2949 20.5683C49.2928 20.6585 48.2607 20.4536 47.2027 19.8833L46.843 19.6893L47.1939 19.4865C49.234 18.3072 51.0594 18.0376 52.7394 18.2256C53.0822 18.2639 53.4179 18.3213 53.7465 18.3931C54.9293 17.4272 56.0492 16.1739 57.1429 14.95L57.1518 14.9402C57.8622 14.1453 58.5604 13.3652 59.2476 12.7048C59.932 12.0473 60.626 11.4878 61.3365 11.1484C62.0578 10.8036 62.832 10.6711 63.6236 10.9256C64.2656 11.132 64.8683 11.5784 65.4513 12.2796C65.8789 11.6481 66.3533 11.2367 66.8978 11.047C67.5957 10.804 68.2997 10.9576 68.9511 11.2903C69.5981 11.6208 70.2563 12.1573 70.9225 12.7835C71.5017 13.3281 72.1029 13.9565 72.7211 14.6023C72.8169 14.7026 72.9132 14.8032 73.0098 14.9041C74.1083 16.0494 75.2552 17.2146 76.46 18.1035C76.8072 18.0125 77.1631 17.9372 77.5279 17.8832C79.1944 17.637 81.0266 17.8379 83.1119 18.9371L83.4796 19.1309ZM77.0148 18.4897C77.2231 18.6254 77.4328 18.7518 77.6442 18.8675C78.4607 19.3142 79.2799 19.5864 80.1067 19.6251C80.8121 19.6581 81.5529 19.5226 82.3353 19.1448C80.5575 18.2952 79.0323 18.1665 77.6575 18.3697C77.4404 18.4018 77.2263 18.4422 77.0148 18.4897ZM75.7868 18.3015C74.6023 17.3942 73.495 16.2627 72.4685 15.1925C72.371 15.0908 72.2741 14.9896 72.1781 14.8891C71.5589 14.2422 70.9686 13.6254 70.4008 13.0916C69.7421 12.4721 69.135 11.9855 68.5746 11.6994C68.0189 11.4155 67.5739 11.359 67.1795 11.4963C66.7507 11.6457 66.2743 12.0564 65.792 12.9154L65.5227 13.395L65.192 12.9372C64.5314 12.0225 63.9149 11.5594 63.3601 11.3809C62.8338 11.2117 62.296 11.279 61.6957 11.5659C61.0842 11.8581 60.4466 12.3622 59.7737 13.0087C59.1037 13.6523 58.4194 14.4167 57.7057 15.2151L57.6578 15.2686C56.6489 16.3979 55.579 17.5953 54.4326 18.5652C55.3625 18.8271 56.2354 19.1836 57.0587 19.5198C57.1142 19.5425 57.1697 19.5651 57.2249 19.5876C58.6053 20.1506 59.8251 20.6231 61.041 20.6186C62.2132 20.6142 63.4632 20.16 64.8724 18.6919L65.1335 18.4199L65.407 18.6851C66.8864 20.1203 68.161 20.5456 69.3368 20.5208C70.5556 20.4952 71.7566 19.9907 73.1115 19.3879C73.1767 19.359 73.2422 19.3298 73.3077 19.3005C74.086 18.9536 74.9087 18.5868 75.7868 18.3015ZM53.2187 18.8008C53.0281 18.7664 52.8354 18.7378 52.6404 18.716C51.2538 18.5608 49.7274 18.7468 47.9764 19.6711C48.7744 20.0298 49.5163 20.1388 50.215 20.0759C51.0341 20.0022 51.8374 19.6883 52.6351 19.1942C52.8316 19.0725 53.0261 18.9409 53.2187 18.8008Z" fill="black"/>
        <path fill-rule="evenodd" clip-rule="evenodd" d="M57.0181 19.4214C57.3988 19.6062 57.7521 19.7046 58.0828 19.7407C58.4658 19.7826 58.8282 19.7419 59.1786 19.6452C59.8826 19.451 60.5226 19.0363 61.1626 18.6219L61.1779 18.6119C61.496 18.4059 61.8141 18.2008 62.1319 18.0336C62.4496 17.8665 62.7777 17.7315 63.119 17.6711C63.465 17.6098 63.8198 17.6262 64.1819 17.756C64.495 17.8683 64.8055 18.0625 65.1188 18.3521C65.4325 18.0639 65.7427 17.871 66.0558 17.7598C66.4173 17.6313 66.7718 17.6161 67.1172 17.6782C67.4576 17.7394 67.7848 17.8749 68.1017 18.042C68.4189 18.2092 68.7364 18.414 69.0539 18.6192C69.6977 19.0354 70.3418 19.4517 71.052 19.6417C71.4027 19.7355 71.766 19.773 72.1511 19.7272C72.4847 19.6875 72.8419 19.5843 73.2272 19.393C69.7897 17.4241 66.0337 14.0035 65.1009 7.64442C64.2122 14.0081 60.4657 17.466 57.0181 19.4214ZM56.6348 19.3259C60.3194 17.2863 64.4539 13.5013 64.9212 6.11513C64.9256 6.04594 65.0019 5.98975 65.0951 5.98956C65.1879 5.98937 65.2648 6.04523 65.2695 6.11442C65.7906 13.4992 69.9336 17.2396 73.6084 19.2975L73.7861 19.3969L73.6081 19.4959C73.1182 19.7687 72.6515 19.9187 72.2033 19.972C71.7548 20.0255 71.3343 19.9808 70.9395 19.8751C70.1703 19.6692 69.486 19.227 68.8618 18.8234L68.8357 18.8065C68.5156 18.5996 68.211 18.4033 67.9096 18.2444C67.608 18.0854 67.3208 17.9698 67.0391 17.9192C66.7621 17.8694 66.4866 17.8815 66.1988 17.9836C65.9072 18.0873 65.5923 18.2876 65.2522 18.6286L65.1183 18.7629L64.9849 18.6284C64.6448 18.2859 64.3299 18.0842 64.0374 17.9794C63.7493 17.8761 63.4732 17.8632 63.196 17.9123C62.9137 17.9623 62.6259 18.0774 62.3236 18.2362C62.022 18.3949 61.7165 18.5915 61.3961 18.799C61.3829 18.8076 61.3697 18.8162 61.3565 18.8249C60.7353 19.2274 60.0556 19.6676 59.2941 19.8778C58.9005 19.9864 58.4817 20.0349 58.0344 19.9861C57.5876 19.9372 57.123 19.7923 56.6354 19.5253L56.4539 19.4259L56.6348 19.3259Z" fill="black"/>
        <path fill-rule="evenodd" clip-rule="evenodd" d="M33.3421 6.27277L33.7433 7.2074C35.2357 10.6829 37.1574 13.0961 39.4647 15.0501C41.7774 17.0086 44.488 18.5155 47.5919 20.176L48.0098 20.3997L47.591 20.6225C45.9642 21.4876 44.5279 21.8204 43.2107 21.8918C42.0358 21.9554 40.97 21.8087 40.0084 21.6763C39.905 21.6621 39.8031 21.648 39.702 21.6344C38.6429 21.4915 37.7178 21.3975 36.7817 21.5843C35.8577 21.7687 34.8644 22.2404 33.7345 23.3228L33.4194 23.6248L33.1051 23.3223C31.9758 22.2353 30.9793 21.7596 30.0506 21.5731C29.1103 21.3841 28.1795 21.4775 27.1166 21.6225C27.0049 21.6378 26.8917 21.6536 26.7771 21.6696C25.8209 21.8033 24.7635 21.9511 23.603 21.8969C22.286 21.8353 20.8525 21.5165 19.2339 20.6695L18.8066 20.446L19.2323 20.2208C25.4379 16.9389 30.4632 13.995 32.99 7.21738L33.3421 6.27277ZM20.1355 20.4376C21.4562 21.0603 22.6093 21.2913 23.6543 21.3402C24.7066 21.3893 25.6625 21.2562 26.6275 21.1218C26.7412 21.106 26.855 21.0901 26.9691 21.0745C28.0325 20.9294 29.128 20.808 30.2635 21.0361C31.3097 21.2463 32.3409 21.7417 33.4208 22.6998C34.5005 21.7464 35.5282 21.255 36.5703 21.0471C37.701 20.8215 38.7904 20.9435 39.848 21.0862C39.9494 21.0999 40.0504 21.1138 40.1514 21.1276C41.1236 21.261 42.0869 21.3931 43.151 21.3355C44.1987 21.2787 45.3588 21.0355 46.6934 20.3928C43.7628 18.8189 41.1318 17.3287 38.865 15.4091C36.6857 13.5637 34.8521 11.3295 33.3921 8.25206C30.7593 14.4379 25.9148 17.3662 20.1355 20.4376Z" fill="black"/>
        <path fill-rule="evenodd" clip-rule="evenodd" d="M47.7931 20.2118L47.5132 20.3655C46.704 20.8101 45.9013 20.989 45.1127 20.9537C44.33 20.9187 43.5925 20.6744 42.9032 20.3141C42.6512 20.1824 42.403 20.0338 42.1589 19.872C41.4332 20.0808 40.7427 20.3748 40.0524 20.6684C40.009 20.687 39.9655 20.7055 39.922 20.724C38.8838 21.1653 37.8226 21.6037 36.7057 21.6261C35.6225 21.6478 34.546 21.2819 33.4062 20.2962C32.3171 21.3062 31.2621 21.6957 30.1816 21.6995C29.0677 21.7035 27.9888 21.2923 26.9322 20.8806C26.898 20.8673 26.8638 20.854 26.8296 20.8406C26.101 20.5565 25.3715 20.2721 24.6076 20.0839C24.3803 20.2513 24.1492 20.4062 23.9142 20.5453C23.2443 20.9418 22.522 21.2229 21.7431 21.2899C20.9565 21.3575 20.1464 21.2038 19.3158 20.7761L19.0333 20.6306L19.3088 20.4785C20.9103 19.594 22.3432 19.3918 23.662 19.5328C23.9311 19.5616 24.1946 19.6047 24.4526 19.6585C25.3811 18.9341 26.2603 17.9941 27.1189 17.0761L27.1258 17.0688C27.6834 16.4726 28.2315 15.8876 28.7711 15.3923C29.3082 14.8992 29.8532 14.4795 30.4107 14.225C30.9769 13.9664 31.5849 13.867 32.2061 14.0578C32.7101 14.2127 33.1832 14.5475 33.6408 15.0734C33.9765 14.5997 34.349 14.2912 34.7763 14.1489C35.3241 13.9667 35.8768 14.0819 36.3882 14.3314C36.896 14.5793 37.4129 14.9816 37.9357 15.4513C38.3904 15.8597 38.8623 16.331 39.3475 16.8154C39.423 16.8906 39.4985 16.9661 39.5746 17.0417C40.4366 17.9007 41.3368 18.7746 42.2828 19.4413C42.5554 19.373 42.8347 19.3165 43.1211 19.2761C44.4293 19.0914 45.8672 19.2421 47.5044 20.0664L47.7931 20.2118ZM42.7184 19.7309C42.8817 19.8327 43.0462 19.9275 43.2121 20.0143C43.8533 20.3493 44.4962 20.5535 45.1453 20.5825C45.6989 20.6073 46.2805 20.5056 46.8949 20.2222C45.4992 19.5851 44.3021 19.4886 43.2227 19.6409C43.0524 19.665 42.8844 19.6953 42.7184 19.7309ZM41.7545 19.5898C40.8246 18.9093 39.9552 18.0607 39.1493 17.258C39.0729 17.1817 38.9969 17.1059 38.9214 17.0305C38.4353 16.5453 37.9721 16.0827 37.5263 15.6823C37.0091 15.2177 36.5324 14.8527 36.0927 14.6382C35.6565 14.4252 35.307 14.3829 34.9975 14.4859C34.6609 14.5979 34.287 14.906 33.9084 15.5502L33.6969 15.9099L33.4373 15.5666C32.9186 14.8806 32.4349 14.5332 31.9993 14.3993C31.5861 14.2724 31.164 14.3229 30.6926 14.538C30.2127 14.7572 29.7122 15.1353 29.1839 15.6202C28.6581 16.1029 28.1207 16.6761 27.5606 17.275L27.5231 17.3151C26.731 18.162 25.891 19.0601 24.9912 19.7875C25.7213 19.984 26.4065 20.2514 27.0527 20.5035C27.0963 20.5205 27.1398 20.5375 27.1831 20.5543C28.2668 20.9766 29.2243 21.331 30.1789 21.3276C31.0991 21.3243 32.0801 20.9836 33.1865 19.8826L33.3915 19.6785L33.6059 19.8775C34.7675 20.9539 35.7682 21.2728 36.691 21.2543C37.6479 21.2351 38.5907 20.8567 39.6542 20.4046C39.7053 20.3829 39.7567 20.361 39.8084 20.339C40.419 20.0788 41.0648 19.8037 41.7545 19.5898ZM24.0383 19.9642C23.8886 19.9384 23.7374 19.917 23.5844 19.9006C22.4959 19.7843 21.2976 19.9238 19.9231 20.617C20.5495 20.886 21.1319 20.9677 21.6804 20.9206C22.3235 20.8653 22.954 20.6299 23.5802 20.2593C23.7344 20.168 23.887 20.0694 24.0383 19.9642Z" fill="black"/>
        <path fill-rule="evenodd" clip-rule="evenodd" d="M27.0208 20.4297C27.3196 20.5684 27.5971 20.6421 27.8566 20.6692C28.1574 20.7006 28.4419 20.6701 28.7168 20.5976C29.2694 20.4519 29.7719 20.1409 30.2741 19.8301L30.2861 19.8226C30.5361 19.6681 30.7857 19.5143 31.0351 19.3889C31.2844 19.2636 31.542 19.1623 31.8099 19.117C32.0816 19.071 32.3603 19.0834 32.6443 19.1806C32.8901 19.2649 33.1339 19.4105 33.38 19.6277C33.6262 19.4116 33.8696 19.2669 34.1155 19.1835C34.3992 19.0872 34.6773 19.0757 34.9484 19.1223C35.216 19.1682 35.4727 19.2698 35.7215 19.3952C35.9705 19.5206 36.2196 19.6742 36.4689 19.8281C36.9744 20.1402 37.4799 20.4524 38.0376 20.595C38.3125 20.6653 38.598 20.6934 38.9002 20.6591C39.1619 20.6293 39.4424 20.5519 39.745 20.4084C37.0464 18.9318 34.0981 16.3663 33.3659 11.597C32.6681 16.3697 29.7272 18.9632 27.0208 20.4297ZM26.7199 20.3581C29.6124 18.8284 32.8578 15.9896 33.2247 10.45C33.2282 10.3981 33.2881 10.356 33.3612 10.3558C33.4341 10.3557 33.4946 10.3976 33.4984 10.4495C33.9072 15.9881 37.1595 18.7934 40.0442 20.3368L40.1837 20.4113L40.0439 20.4856C39.6595 20.6902 39.2932 20.8027 38.9414 20.8427C38.5889 20.8828 38.2591 20.8493 37.9492 20.77C37.3451 20.6156 36.8082 20.2839 36.3183 19.9812L36.2977 19.9686C36.0463 19.8134 35.8072 19.6661 35.5708 19.547C35.3341 19.4277 35.1085 19.3411 34.8873 19.3031C34.67 19.2658 34.4535 19.2748 34.2277 19.3514C33.9986 19.4292 33.7516 19.5794 33.4846 19.8352L33.3795 19.9358L33.2746 19.835C33.0079 19.5781 32.7606 19.4268 32.5312 19.3482C32.3048 19.2708 32.088 19.2611 31.8704 19.2979C31.6489 19.3354 31.4228 19.4217 31.1858 19.5408C30.9487 19.6598 30.7091 19.8073 30.4577 19.963C30.4474 19.9694 30.4368 19.9759 30.4262 19.9823C29.9387 20.2842 29.4053 20.6144 28.8075 20.772C28.4986 20.8535 28.1697 20.8898 27.8187 20.8532C27.468 20.8166 27.1032 20.7079 26.7205 20.5076L26.578 20.4331L26.7199 20.3581Z" fill="black"/>
        <path fill-rule="evenodd" clip-rule="evenodd" d="M10.2841 12L10.5574 12.6231C11.5734 14.9401 12.8818 16.5489 14.4527 17.8515C16.0273 19.1572 17.8728 20.1618 19.986 21.2688L20.2706 21.418L19.9854 21.5665C18.8778 22.1432 17.9 22.3651 17.003 22.4127C16.2032 22.4551 15.4776 22.3573 14.8229 22.269C14.7525 22.2595 14.683 22.2502 14.6143 22.2411C13.8931 22.1458 13.2633 22.0832 12.626 22.2077C11.9969 22.3306 11.3206 22.6451 10.5513 23.3667L10.3367 23.5681L10.1227 23.3664C9.35387 22.6417 8.67538 22.3246 8.04317 22.2002C7.40295 22.0742 6.76919 22.1365 6.04556 22.2332C5.96949 22.2433 5.89245 22.2539 5.81441 22.2646C5.16341 22.3537 4.44345 22.4522 3.65335 22.4161C2.75671 22.375 1.78073 22.1625 0.678687 21.5979L0.387756 21.4488L0.677589 21.2987C4.90266 19.1108 8.32416 17.1482 10.0444 12.6298L10.2841 12ZM1.29255 21.4433C2.19172 21.8584 2.97683 22.0124 3.6883 22.0449C4.40474 22.0777 5.05556 21.989 5.71259 21.8994C5.78998 21.8888 5.86743 21.8783 5.94511 21.8679C6.66916 21.7711 7.415 21.6901 8.18812 21.8422C8.90047 21.9824 9.6024 22.3126 10.3377 22.9514C11.0728 22.3158 11.7726 21.9881 12.482 21.8495C13.2518 21.6991 13.9937 21.7805 14.7137 21.8756C14.7826 21.8848 14.8515 21.894 14.9203 21.9032C15.5821 21.9922 16.238 22.0802 16.9625 22.0418C17.6757 22.004 18.4657 21.8419 19.3742 21.4133C17.3791 20.3641 15.5876 19.3707 14.0443 18.0909C12.5606 16.8606 11.3123 15.3712 10.3181 13.3195C8.52562 17.4434 5.22732 19.3956 1.29255 21.4433Z" fill="black"/>
        <path fill-rule="evenodd" clip-rule="evenodd" d="M20.1229 21.2927L19.9323 21.3952C19.3813 21.6916 18.8349 21.8109 18.2979 21.7874C17.7651 21.764 17.2629 21.6011 16.7935 21.361C16.6219 21.2732 16.453 21.1741 16.2868 21.0662C15.7928 21.2054 15.3225 21.4014 14.8528 21.5972C14.8231 21.6095 14.7935 21.6219 14.7639 21.6342C14.057 21.9284 13.3345 22.2206 12.5741 22.2356C11.8366 22.2501 11.1038 22.0062 10.3276 21.349C9.58607 22.0223 8.86784 22.282 8.13213 22.2846C7.37381 22.2872 6.63928 22.0131 5.91991 21.7387C5.89662 21.7298 5.87333 21.7209 5.85001 21.712C5.35396 21.5226 4.85728 21.3329 4.33721 21.2075C4.18246 21.3191 4.02512 21.4224 3.86511 21.5151C3.40901 21.7794 2.91721 21.9668 2.38691 22.0115C1.85139 22.0565 1.29979 21.9541 0.734329 21.669L0.541992 21.572L0.729559 21.4705C1.81993 20.8809 2.79555 20.7461 3.69341 20.8401C3.87662 20.8593 4.05599 20.888 4.23165 20.9239C4.86386 20.4409 5.46243 19.8143 6.04702 19.2023L6.05169 19.1974C6.43134 18.8 6.80449 18.4099 7.17186 18.0797C7.53758 17.751 7.90856 17.4712 8.28818 17.3015C8.67379 17.1291 9.08762 17.0629 9.51064 17.1901C9.85378 17.2933 10.1759 17.5165 10.4874 17.8671C10.716 17.5514 10.9695 17.3456 11.2605 17.2508C11.6335 17.1293 12.0098 17.2061 12.3579 17.3725C12.7037 17.5377 13.0556 17.806 13.4116 18.1191C13.7211 18.3914 14.0425 18.7056 14.3728 19.0285C14.4241 19.0786 14.4756 19.129 14.5273 19.1794C15.1143 19.752 15.7272 20.3346 16.3712 20.7791C16.5567 20.7336 16.7469 20.6959 16.942 20.6689C17.8326 20.5458 18.8117 20.6463 19.9264 21.1958L20.1229 21.2927ZM16.6678 20.9722C16.7789 21.04 16.891 21.1032 17.004 21.1611C17.4405 21.3844 17.8782 21.5205 18.3202 21.5399C18.6971 21.5564 19.093 21.4886 19.5113 21.2997C18.5611 20.8749 17.746 20.8106 17.0112 20.9122C16.8951 20.9282 16.7807 20.9484 16.6678 20.9722ZM16.0114 20.8781C15.3784 20.4244 14.7865 19.8587 14.2378 19.3235C14.1857 19.2727 14.134 19.2221 14.0826 19.1719C13.7517 18.8484 13.4362 18.54 13.1328 18.2731C12.7806 17.9634 12.4561 17.72 12.1568 17.577C11.8597 17.435 11.6219 17.4068 11.4111 17.4755C11.1819 17.5502 10.9273 17.7555 10.6695 18.185L10.5255 18.4248L10.3488 18.1959C9.99573 17.7386 9.66637 17.507 9.36972 17.4178C9.08844 17.3332 8.80108 17.3668 8.4802 17.5102C8.15337 17.6564 7.81258 17.9084 7.45294 18.2317C7.09494 18.5535 6.7291 18.9356 6.34775 19.3349L6.3222 19.3616C5.78289 19.9262 5.21102 20.525 4.59835 21.0099C5.09544 21.1409 5.56194 21.3191 6.00191 21.4872C6.0316 21.4986 6.06121 21.5099 6.09067 21.5211C6.82855 21.8026 7.48043 22.0389 8.13037 22.0366C8.75685 22.0344 9.42485 21.8073 10.178 21.0733L10.3175 20.9372L10.4637 21.0699C11.2545 21.7875 11.9357 22.0001 12.564 21.9877C13.2155 21.9749 13.8574 21.7227 14.5815 21.4213C14.6163 21.4068 14.6513 21.3922 14.6864 21.3776C15.1023 21.2041 15.542 21.0207 16.0114 20.8781ZM3.94961 21.1277C3.84772 21.1105 3.74475 21.0962 3.64057 21.0853C2.89944 21.0077 2.08362 21.1007 1.14781 21.5629C1.57426 21.7422 1.9708 21.7967 2.34426 21.7653C2.78211 21.7284 3.21138 21.5715 3.63769 21.3244C3.74266 21.2636 3.84661 21.1978 3.94961 21.1277Z" fill="black"/>
        <path fill-rule="evenodd" clip-rule="evenodd" d="M5.98026 21.4379C6.18371 21.5304 6.37268 21.5796 6.54932 21.5976C6.75412 21.6186 6.94782 21.5982 7.135 21.5499C7.51127 21.4527 7.8534 21.2454 8.19534 21.0382L8.20356 21.0332C8.37356 20.9302 8.54353 20.8276 8.71341 20.7441C8.8832 20.6605 9.05854 20.593 9.24096 20.5628C9.42594 20.5321 9.61561 20.5404 9.80902 20.6052C9.97646 20.6614 10.1423 20.7585 10.3099 20.9033C10.4775 20.7592 10.6433 20.6628 10.8106 20.6072C11.0038 20.5429 11.1933 20.5353 11.3778 20.5663C11.5598 20.5969 11.7347 20.6647 11.9041 20.7483C12.0736 20.8318 12.2433 20.9343 12.4129 21.0369C12.757 21.2449 13.1013 21.4531 13.4809 21.5481C13.6683 21.595 13.8625 21.6138 14.0682 21.5908C14.2465 21.571 14.4375 21.5194 14.6435 21.4237C12.8062 20.4393 10.7989 18.729 10.3002 15.5495C9.8252 18.7313 7.82295 20.4603 5.98026 21.4379ZM5.77543 21.3902C7.74473 20.3704 9.9544 18.4779 10.2042 14.7848C10.2065 14.7502 10.2474 14.7221 10.2971 14.722C10.3468 14.7219 10.3878 14.7499 10.3904 14.7845C10.6689 18.4768 12.8831 20.3471 14.8472 21.376L14.9421 21.4257L14.847 21.4752C14.5851 21.6116 14.3358 21.6866 14.0963 21.7133C13.8564 21.74 13.6318 21.7176 13.4208 21.6648C13.0096 21.5619 12.644 21.3407 12.3103 21.139L12.2964 21.1305C12.1253 21.0271 11.9624 20.9289 11.8014 20.8494C11.6403 20.77 11.4867 20.7122 11.3361 20.6869C11.1881 20.662 11.0408 20.668 10.8871 20.7191C10.7311 20.7709 10.5628 20.8711 10.3811 21.0416L10.3096 21.1087L10.2382 21.0415C10.0565 20.8702 9.88817 20.7694 9.73192 20.717C9.57793 20.6653 9.43031 20.6589 9.28205 20.6834C9.13123 20.7084 8.97736 20.7659 8.81597 20.8453C8.65469 20.9247 8.49148 21.023 8.32025 21.1268C8.31314 21.1311 8.30606 21.1354 8.29893 21.1397C7.96695 21.3409 7.60381 21.5611 7.19677 21.6661C6.98644 21.7204 6.76252 21.7447 6.52353 21.7203C6.28475 21.6959 6.03639 21.6234 5.77579 21.4899L5.67883 21.4402L5.77543 21.3902Z" fill="black"/>
        <path fill-rule="evenodd" clip-rule="evenodd" d="M65.0707 0.545471L65.582 1.79164C67.4829 6.42564 69.9309 9.64325 72.8703 12.2485C75.8162 14.8599 79.2693 16.869 83.2232 19.0831L83.756 19.3814L83.222 19.6785C81.1499 20.8319 79.3204 21.2757 77.6419 21.3708C76.1454 21.4557 74.7879 21.2601 73.5629 21.0835C73.4313 21.0645 73.3012 21.0458 73.1726 21.0276C71.8233 20.8371 70.6449 20.7118 69.4525 20.9609C68.2753 21.2067 67.01 21.8356 65.5706 23.2789L65.1691 23.6816L64.7687 23.2782C63.3302 21.8289 62.0605 21.1946 60.8777 20.9459C59.68 20.6939 58.494 20.8184 57.14 21.0118C56.9979 21.0321 56.8536 21.0532 56.7077 21.0746C55.4897 21.2528 54.1424 21.4499 52.6642 21.3776C50.9866 21.2955 49.1603 20.8704 47.0985 19.7412L46.554 19.4431L47.0964 19.1429C55.0018 14.767 61.4034 10.8418 64.6222 1.80496L65.0707 0.545471ZM48.2469 19.432C49.9295 20.2622 51.3983 20.5702 52.7297 20.6353C54.0702 20.7009 55.2879 20.5234 56.5171 20.3442C56.6619 20.3231 56.8069 20.3019 56.952 20.2812C58.3069 20.0877 59.7023 19.9257 61.1488 20.2299C62.4819 20.5102 63.7951 21.1707 65.1708 22.4482C66.5462 21.177 67.8556 20.5218 69.1828 20.2446C70.6235 19.9437 72.0112 20.1065 73.3585 20.2967C73.4877 20.315 73.6163 20.3335 73.745 20.352C74.9835 20.5298 76.2106 20.706 77.5661 20.6291C78.9007 20.5534 80.3786 20.2292 82.0786 19.3721C78.3456 17.2736 74.9938 15.2868 72.1061 12.7272C69.3303 10.2667 66.9944 7.28784 65.1341 3.18452C61.7806 11.4323 55.6092 15.3367 48.2469 19.432Z" stroke="black" stroke-width="0.75"/>
        <path fill-rule="evenodd" clip-rule="evenodd" d="M83.4796 19.1309L83.123 19.3358C82.0921 19.9286 81.0697 20.1671 80.065 20.1201C79.0681 20.0735 78.1286 19.7477 77.2504 19.2673C76.9291 19.0917 76.613 18.8936 76.302 18.6778C75.378 18.9562 74.4981 19.3481 73.619 19.7397C73.5635 19.7644 73.5083 19.7891 73.4528 19.8138C72.1299 20.4022 70.7783 20.9867 69.3556 21.0166C67.9757 21.0456 66.6044 20.5577 65.1523 19.2434C63.7648 20.59 62.4208 21.1094 61.0445 21.1145C59.6256 21.1198 58.2511 20.5715 56.9053 20.0226C56.8616 20.0049 56.8181 19.9871 56.7743 19.9693C55.8462 19.5905 54.9169 19.2112 53.9439 18.9604C53.6543 19.1835 53.36 19.39 53.0607 19.5755C52.2072 20.1042 51.287 20.479 50.2949 20.5683C49.2928 20.6585 48.2607 20.4536 47.2027 19.8833L46.843 19.6893L47.1939 19.4865C49.234 18.3072 51.0594 18.0376 52.7394 18.2256C53.0822 18.2639 53.4179 18.3213 53.7465 18.3931C54.9293 17.4272 56.0492 16.1739 57.1429 14.95L57.1518 14.9402C57.8622 14.1453 58.5604 13.3652 59.2476 12.7048C59.932 12.0473 60.626 11.4878 61.3365 11.1484C62.0578 10.8036 62.832 10.6711 63.6236 10.9256C64.2656 11.132 64.8683 11.5784 65.4513 12.2796C65.8789 11.6481 66.3533 11.2367 66.8978 11.047C67.5957 10.804 68.2997 10.9576 68.9511 11.2903C69.5981 11.6208 70.2563 12.1573 70.9225 12.7835C71.5017 13.3281 72.1029 13.9565 72.7211 14.6023C72.8169 14.7026 72.9132 14.8032 73.0098 14.9041C74.1083 16.0494 75.2552 17.2146 76.46 18.1035C76.8072 18.0125 77.1631 17.9372 77.5279 17.8832C79.1944 17.637 81.0266 17.8379 83.1119 18.9371L83.4796 19.1309ZM77.0148 18.4897C77.2231 18.6254 77.4328 18.7518 77.6442 18.8675C78.4607 19.3142 79.2799 19.5864 80.1067 19.6251C80.8121 19.6581 81.5529 19.5226 82.3353 19.1448C80.5575 18.2952 79.0323 18.1665 77.6575 18.3697C77.4404 18.4018 77.2263 18.4422 77.0148 18.4897ZM75.7868 18.3015C74.6023 17.3942 73.495 16.2627 72.4685 15.1925C72.371 15.0908 72.2741 14.9896 72.1781 14.8891C71.5589 14.2422 70.9686 13.6254 70.4008 13.0916C69.7421 12.4721 69.135 11.9855 68.5746 11.6994C68.0189 11.4155 67.5739 11.359 67.1795 11.4963C66.7507 11.6457 66.2743 12.0564 65.792 12.9154L65.5227 13.395L65.192 12.9372C64.5314 12.0225 63.9149 11.5594 63.3601 11.3809C62.8338 11.2117 62.296 11.279 61.6957 11.5659C61.0842 11.8581 60.4466 12.3622 59.7737 13.0087C59.1037 13.6523 58.4194 14.4167 57.7057 15.2151L57.6578 15.2686C56.6489 16.3979 55.579 17.5953 54.4326 18.5652C55.3625 18.8271 56.2354 19.1836 57.0587 19.5198C57.1142 19.5425 57.1697 19.5651 57.2249 19.5876C58.6053 20.1506 59.8251 20.6231 61.041 20.6186C62.2132 20.6142 63.4632 20.16 64.8724 18.6919L65.1335 18.4199L65.407 18.6851C66.8864 20.1203 68.161 20.5456 69.3368 20.5208C70.5556 20.4952 71.7566 19.9907 73.1115 19.3879C73.1767 19.359 73.2422 19.3298 73.3077 19.3005C74.086 18.9536 74.9087 18.5868 75.7868 18.3015ZM53.2187 18.8008C53.0281 18.7664 52.8354 18.7378 52.6404 18.716C51.2538 18.5608 49.7274 18.7468 47.9764 19.6711C48.7744 20.0298 49.5163 20.1388 50.215 20.0759C51.0341 20.0022 51.8374 19.6883 52.6351 19.1942C52.8316 19.0725 53.0261 18.9409 53.2187 18.8008Z" stroke="black" stroke-width="0.75"/>
        <path fill-rule="evenodd" clip-rule="evenodd" d="M57.0181 19.4214C57.3988 19.6062 57.7521 19.7046 58.0828 19.7407C58.4658 19.7826 58.8282 19.7419 59.1786 19.6452C59.8826 19.451 60.5226 19.0363 61.1626 18.6219L61.1779 18.6119C61.496 18.4059 61.8141 18.2008 62.1319 18.0336C62.4496 17.8665 62.7777 17.7315 63.119 17.6711C63.465 17.6098 63.8198 17.6262 64.1819 17.756C64.495 17.8683 64.8055 18.0625 65.1188 18.3521C65.4325 18.0639 65.7427 17.871 66.0558 17.7598C66.4173 17.6313 66.7718 17.6161 67.1172 17.6782C67.4576 17.7394 67.7848 17.8749 68.1017 18.042C68.4189 18.2092 68.7364 18.414 69.0539 18.6192C69.6977 19.0354 70.3418 19.4517 71.052 19.6417C71.4027 19.7355 71.766 19.773 72.1511 19.7272C72.4847 19.6875 72.8419 19.5843 73.2272 19.393C69.7897 17.4241 66.0337 14.0035 65.1009 7.64442C64.2122 14.0081 60.4657 17.466 57.0181 19.4214ZM56.6348 19.3259C60.3194 17.2863 64.4539 13.5013 64.9212 6.11513C64.9256 6.04594 65.0019 5.98975 65.0951 5.98956C65.1879 5.98937 65.2648 6.04523 65.2695 6.11442C65.7906 13.4992 69.9336 17.2396 73.6084 19.2975L73.7861 19.3969L73.6081 19.4959C73.1182 19.7687 72.6515 19.9187 72.2033 19.972C71.7548 20.0255 71.3343 19.9808 70.9395 19.8751C70.1703 19.6692 69.486 19.227 68.8618 18.8234L68.8357 18.8065C68.5156 18.5996 68.211 18.4033 67.9096 18.2444C67.608 18.0854 67.3208 17.9698 67.0391 17.9192C66.7621 17.8694 66.4866 17.8815 66.1988 17.9836C65.9072 18.0873 65.5923 18.2876 65.2522 18.6286L65.1183 18.7629L64.9849 18.6284C64.6448 18.2859 64.3299 18.0842 64.0374 17.9794C63.7493 17.8761 63.4732 17.8632 63.196 17.9123C62.9137 17.9623 62.6259 18.0774 62.3236 18.2362C62.022 18.3949 61.7165 18.5915 61.3961 18.799C61.3829 18.8076 61.3697 18.8162 61.3565 18.8249C60.7353 19.2274 60.0556 19.6676 59.2941 19.8778C58.9005 19.9864 58.4817 20.0349 58.0344 19.9861C57.5876 19.9372 57.123 19.7923 56.6354 19.5253L56.4539 19.4259L56.6348 19.3259Z" stroke="black" stroke-width="0.75"/>
        <path fill-rule="evenodd" clip-rule="evenodd" d="M33.3421 6.27277L33.7433 7.2074C35.2357 10.6829 37.1574 13.0961 39.4647 15.0501C41.7774 17.0086 44.488 18.5155 47.5919 20.176L48.0098 20.3997L47.591 20.6225C45.9642 21.4876 44.5279 21.8204 43.2107 21.8918C42.0358 21.9554 40.97 21.8087 40.0084 21.6763C39.905 21.6621 39.8031 21.648 39.702 21.6344C38.6429 21.4915 37.7178 21.3975 36.7817 21.5843C35.8577 21.7687 34.8644 22.2404 33.7345 23.3228L33.4194 23.6248L33.1051 23.3223C31.9758 22.2353 30.9793 21.7596 30.0506 21.5731C29.1103 21.3841 28.1795 21.4775 27.1166 21.6225C27.0049 21.6378 26.8917 21.6536 26.7771 21.6696C25.8209 21.8033 24.7635 21.9511 23.603 21.8969C22.286 21.8353 20.8525 21.5165 19.2339 20.6695L18.8066 20.446L19.2323 20.2208C25.4379 16.9389 30.4632 13.995 32.99 7.21738L33.3421 6.27277ZM20.1355 20.4376C21.4562 21.0603 22.6093 21.2913 23.6543 21.3402C24.7066 21.3893 25.6625 21.2562 26.6275 21.1218C26.7412 21.106 26.855 21.0901 26.9691 21.0745C28.0325 20.9294 29.128 20.808 30.2635 21.0361C31.3097 21.2463 32.3409 21.7417 33.4208 22.6998C34.5005 21.7464 35.5282 21.255 36.5703 21.0471C37.701 20.8215 38.7904 20.9435 39.848 21.0862C39.9494 21.0999 40.0504 21.1138 40.1514 21.1276C41.1236 21.261 42.0869 21.3931 43.151 21.3355C44.1987 21.2787 45.3588 21.0355 46.6934 20.3928C43.7628 18.8189 41.1318 17.3287 38.865 15.4091C36.6857 13.5637 34.8521 11.3295 33.3921 8.25206C30.7593 14.4379 25.9148 17.3662 20.1355 20.4376Z" stroke="black" stroke-width="0.75"/>
        <path fill-rule="evenodd" clip-rule="evenodd" d="M47.7931 20.2118L47.5132 20.3655C46.704 20.8101 45.9013 20.989 45.1127 20.9537C44.33 20.9187 43.5925 20.6744 42.9032 20.3141C42.6512 20.1824 42.403 20.0338 42.1589 19.872C41.4332 20.0808 40.7427 20.3748 40.0524 20.6684C40.009 20.687 39.9655 20.7055 39.922 20.724C38.8838 21.1653 37.8226 21.6037 36.7057 21.6261C35.6225 21.6478 34.546 21.2819 33.4062 20.2962C32.3171 21.3062 31.2621 21.6957 30.1816 21.6995C29.0677 21.7035 27.9888 21.2923 26.9322 20.8806C26.898 20.8673 26.8638 20.854 26.8296 20.8406C26.101 20.5565 25.3715 20.2721 24.6076 20.0839C24.3803 20.2513 24.1492 20.4062 23.9142 20.5453C23.2443 20.9418 22.522 21.2229 21.7431 21.2899C20.9565 21.3575 20.1464 21.2038 19.3158 20.7761L19.0333 20.6306L19.3088 20.4785C20.9103 19.594 22.3432 19.3918 23.662 19.5328C23.9311 19.5616 24.1946 19.6047 24.4526 19.6585C25.3811 18.9341 26.2603 17.9941 27.1189 17.0761L27.1258 17.0688C27.6834 16.4726 28.2315 15.8876 28.7711 15.3923C29.3082 14.8992 29.8532 14.4795 30.4107 14.225C30.9769 13.9664 31.5849 13.867 32.2061 14.0578C32.7101 14.2127 33.1832 14.5475 33.6408 15.0734C33.9765 14.5997 34.349 14.2912 34.7763 14.1489C35.3241 13.9667 35.8768 14.0819 36.3882 14.3314C36.896 14.5793 37.4129 14.9816 37.9357 15.4513C38.3904 15.8597 38.8623 16.331 39.3475 16.8154C39.423 16.8906 39.4985 16.9661 39.5746 17.0417C40.4366 17.9007 41.3368 18.7746 42.2828 19.4413C42.5554 19.373 42.8347 19.3165 43.1211 19.2761C44.4293 19.0914 45.8672 19.2421 47.5044 20.0664L47.7931 20.2118ZM42.7184 19.7309C42.8817 19.8327 43.0462 19.9275 43.2121 20.0143C43.8533 20.3493 44.4962 20.5535 45.1453 20.5825C45.6989 20.6073 46.2805 20.5056 46.8949 20.2222C45.4992 19.5851 44.3021 19.4886 43.2227 19.6409C43.0524 19.665 42.8844 19.6953 42.7184 19.7309ZM41.7545 19.5898C40.8246 18.9093 39.9552 18.0607 39.1493 17.258C39.0729 17.1817 38.9969 17.1059 38.9214 17.0305C38.4353 16.5453 37.9721 16.0827 37.5263 15.6823C37.0091 15.2177 36.5324 14.8527 36.0927 14.6382C35.6565 14.4252 35.307 14.3829 34.9975 14.4859C34.6609 14.5979 34.287 14.906 33.9084 15.5502L33.6969 15.9099L33.4373 15.5666C32.9186 14.8806 32.4349 14.5332 31.9993 14.3993C31.5861 14.2724 31.164 14.3229 30.6926 14.538C30.2127 14.7572 29.7122 15.1353 29.1839 15.6202C28.6581 16.1029 28.1207 16.6761 27.5606 17.275L27.5231 17.3151C26.731 18.162 25.891 19.0601 24.9912 19.7875C25.7213 19.984 26.4065 20.2514 27.0527 20.5035C27.0963 20.5205 27.1398 20.5375 27.1831 20.5543C28.2668 20.9766 29.2243 21.331 30.1789 21.3276C31.0991 21.3243 32.0801 20.9836 33.1865 19.8826L33.3915 19.6785L33.6059 19.8775C34.7675 20.9539 35.7682 21.2728 36.691 21.2543C37.6479 21.2351 38.5907 20.8567 39.6542 20.4046C39.7053 20.3829 39.7567 20.361 39.8084 20.339C40.419 20.0788 41.0648 19.8037 41.7545 19.5898ZM24.0383 19.9642C23.8886 19.9384 23.7374 19.917 23.5844 19.9006C22.4959 19.7843 21.2976 19.9238 19.9231 20.617C20.5495 20.886 21.1319 20.9677 21.6804 20.9206C22.3235 20.8653 22.954 20.6299 23.5802 20.2593C23.7344 20.168 23.887 20.0694 24.0383 19.9642Z" stroke="black" stroke-width="0.75"/>
        <path fill-rule="evenodd" clip-rule="evenodd" d="M27.0208 20.4297C27.3196 20.5684 27.5971 20.6421 27.8566 20.6692C28.1574 20.7006 28.4419 20.6701 28.7168 20.5976C29.2694 20.4519 29.7719 20.1409 30.2741 19.8301L30.2861 19.8226C30.5361 19.6681 30.7857 19.5143 31.0351 19.3889C31.2844 19.2636 31.542 19.1623 31.8099 19.117C32.0816 19.071 32.3603 19.0834 32.6443 19.1806C32.8901 19.2649 33.1339 19.4105 33.38 19.6277C33.6262 19.4116 33.8696 19.2669 34.1155 19.1835C34.3992 19.0872 34.6773 19.0757 34.9484 19.1223C35.216 19.1682 35.4727 19.2698 35.7215 19.3952C35.9705 19.5206 36.2196 19.6742 36.4689 19.8281C36.9744 20.1402 37.4799 20.4524 38.0376 20.595C38.3125 20.6653 38.598 20.6934 38.9002 20.6591C39.1619 20.6293 39.4424 20.5519 39.745 20.4084C37.0464 18.9318 34.0981 16.3663 33.3659 11.597C32.6681 16.3697 29.7272 18.9632 27.0208 20.4297ZM26.7199 20.3581C29.6124 18.8284 32.8578 15.9896 33.2247 10.45C33.2282 10.3981 33.2881 10.356 33.3612 10.3558C33.4341 10.3557 33.4946 10.3976 33.4984 10.4495C33.9072 15.9881 37.1595 18.7934 40.0442 20.3368L40.1837 20.4113L40.0439 20.4856C39.6595 20.6902 39.2932 20.8027 38.9414 20.8427C38.5889 20.8828 38.2591 20.8493 37.9492 20.77C37.3451 20.6156 36.8082 20.2839 36.3183 19.9812L36.2977 19.9686C36.0463 19.8134 35.8072 19.6661 35.5708 19.547C35.3341 19.4277 35.1085 19.3411 34.8873 19.3031C34.67 19.2658 34.4535 19.2748 34.2277 19.3514C33.9986 19.4292 33.7516 19.5794 33.4846 19.8352L33.3795 19.9358L33.2746 19.835C33.0079 19.5781 32.7606 19.4268 32.5312 19.3482C32.3048 19.2708 32.088 19.2611 31.8704 19.2979C31.6489 19.3354 31.4228 19.4217 31.1858 19.5408C30.9487 19.6598 30.7091 19.8073 30.4577 19.963C30.4474 19.9694 30.4368 19.9759 30.4262 19.9823C29.9387 20.2842 29.4053 20.6144 28.8075 20.772C28.4986 20.8535 28.1697 20.8898 27.8187 20.8532C27.468 20.8166 27.1032 20.7079 26.7205 20.5076L26.578 20.4331L26.7199 20.3581Z" stroke="black" stroke-width="0.75"/>
        <path fill-rule="evenodd" clip-rule="evenodd" d="M10.2841 12L10.5574 12.6231C11.5734 14.9401 12.8818 16.5489 14.4527 17.8515C16.0273 19.1572 17.8728 20.1618 19.986 21.2688L20.2706 21.418L19.9854 21.5665C18.8778 22.1432 17.9 22.3651 17.003 22.4127C16.2032 22.4551 15.4776 22.3573 14.8229 22.269C14.7525 22.2595 14.683 22.2502 14.6143 22.2411C13.8931 22.1458 13.2633 22.0832 12.626 22.2077C11.9969 22.3306 11.3206 22.6451 10.5513 23.3667L10.3367 23.5681L10.1227 23.3664C9.35387 22.6417 8.67538 22.3246 8.04317 22.2002C7.40295 22.0742 6.76919 22.1365 6.04556 22.2332C5.96949 22.2433 5.89245 22.2539 5.81441 22.2646C5.16341 22.3537 4.44345 22.4522 3.65335 22.4161C2.75671 22.375 1.78073 22.1625 0.678687 21.5979L0.387756 21.4488L0.677589 21.2987C4.90266 19.1108 8.32416 17.1482 10.0444 12.6298L10.2841 12ZM1.29255 21.4433C2.19172 21.8584 2.97683 22.0124 3.6883 22.0449C4.40474 22.0777 5.05556 21.989 5.71259 21.8994C5.78998 21.8888 5.86743 21.8783 5.94511 21.8679C6.66916 21.7711 7.415 21.6901 8.18812 21.8422C8.90047 21.9824 9.6024 22.3126 10.3377 22.9514C11.0728 22.3158 11.7726 21.9881 12.482 21.8495C13.2518 21.6991 13.9937 21.7805 14.7137 21.8756C14.7826 21.8848 14.8515 21.894 14.9203 21.9032C15.5821 21.9922 16.238 22.0802 16.9625 22.0418C17.6757 22.004 18.4657 21.8419 19.3742 21.4133C17.3791 20.3641 15.5876 19.3707 14.0443 18.0909C12.5606 16.8606 11.3123 15.3712 10.3181 13.3195C8.52562 17.4434 5.22732 19.3956 1.29255 21.4433Z" stroke="black" stroke-width="0.75"/>
        <path fill-rule="evenodd" clip-rule="evenodd" d="M20.1229 21.2927L19.9323 21.3952C19.3813 21.6916 18.8349 21.8109 18.2979 21.7874C17.7651 21.764 17.2629 21.6011 16.7935 21.361C16.6219 21.2732 16.453 21.1741 16.2868 21.0662C15.7928 21.2054 15.3225 21.4014 14.8528 21.5972C14.8231 21.6095 14.7935 21.6219 14.7639 21.6342C14.057 21.9284 13.3345 22.2206 12.5741 22.2356C11.8366 22.2501 11.1038 22.0062 10.3276 21.349C9.58607 22.0223 8.86784 22.282 8.13213 22.2846C7.37381 22.2872 6.63928 22.0131 5.91991 21.7387C5.89662 21.7298 5.87333 21.7209 5.85001 21.712C5.35396 21.5226 4.85728 21.3329 4.33721 21.2075C4.18246 21.3191 4.02512 21.4224 3.86511 21.5151C3.40901 21.7794 2.91721 21.9668 2.38691 22.0115C1.85139 22.0565 1.29979 21.9541 0.734329 21.669L0.541992 21.572L0.729559 21.4705C1.81993 20.8809 2.79555 20.7461 3.69341 20.8401C3.87662 20.8593 4.05599 20.888 4.23165 20.9239C4.86386 20.4409 5.46243 19.8143 6.04702 19.2023L6.05169 19.1974C6.43134 18.8 6.80449 18.4099 7.17186 18.0797C7.53758 17.751 7.90856 17.4712 8.28818 17.3015C8.67379 17.1291 9.08762 17.0629 9.51064 17.1901C9.85378 17.2933 10.1759 17.5165 10.4874 17.8671C10.716 17.5514 10.9695 17.3456 11.2605 17.2508C11.6335 17.1293 12.0098 17.2061 12.3579 17.3725C12.7037 17.5377 13.0556 17.806 13.4116 18.1191C13.7211 18.3914 14.0425 18.7056 14.3728 19.0285C14.4241 19.0786 14.4756 19.129 14.5273 19.1794C15.1143 19.752 15.7272 20.3346 16.3712 20.7791C16.5567 20.7336 16.7469 20.6959 16.942 20.6689C17.8326 20.5458 18.8117 20.6463 19.9264 21.1958L20.1229 21.2927ZM16.6678 20.9722C16.7789 21.04 16.891 21.1032 17.004 21.1611C17.4405 21.3844 17.8782 21.5205 18.3202 21.5399C18.6971 21.5564 19.093 21.4886 19.5113 21.2997C18.5611 20.8749 17.746 20.8106 17.0112 20.9122C16.8951 20.9282 16.7807 20.9484 16.6678 20.9722ZM16.0114 20.8781C15.3784 20.4244 14.7865 19.8587 14.2378 19.3235C14.1857 19.2727 14.134 19.2221 14.0826 19.1719C13.7517 18.8484 13.4362 18.54 13.1328 18.2731C12.7806 17.9634 12.4561 17.72 12.1568 17.577C11.8597 17.435 11.6219 17.4068 11.4111 17.4755C11.1819 17.5502 10.9273 17.7555 10.6695 18.185L10.5255 18.4248L10.3488 18.1959C9.99573 17.7386 9.66637 17.507 9.36972 17.4178C9.08844 17.3332 8.80108 17.3668 8.4802 17.5102C8.15337 17.6564 7.81258 17.9084 7.45294 18.2317C7.09494 18.5535 6.7291 18.9356 6.34775 19.3349L6.3222 19.3616C5.78289 19.9262 5.21102 20.525 4.59835 21.0099C5.09544 21.1409 5.56194 21.3191 6.00191 21.4872C6.0316 21.4986 6.06121 21.5099 6.09067 21.5211C6.82855 21.8026 7.48043 22.0389 8.13037 22.0366C8.75685 22.0344 9.42485 21.8073 10.178 21.0733L10.3175 20.9372L10.4637 21.0699C11.2545 21.7875 11.9357 22.0001 12.564 21.9877C13.2155 21.9749 13.8574 21.7227 14.5815 21.4213C14.6163 21.4068 14.6513 21.3922 14.6864 21.3776C15.1023 21.2041 15.542 21.0207 16.0114 20.8781ZM3.94961 21.1277C3.84772 21.1105 3.74475 21.0962 3.64057 21.0853C2.89944 21.0077 2.08362 21.1007 1.14781 21.5629C1.57426 21.7422 1.9708 21.7967 2.34426 21.7653C2.78211 21.7284 3.21138 21.5715 3.63769 21.3244C3.74266 21.2636 3.84661 21.1978 3.94961 21.1277Z" stroke="black" stroke-width="0.75"/>
        <path fill-rule="evenodd" clip-rule="evenodd" d="M5.98026 21.4379C6.18371 21.5304 6.37268 21.5796 6.54932 21.5976C6.75412 21.6186 6.94782 21.5982 7.135 21.5499C7.51127 21.4527 7.8534 21.2454 8.19534 21.0382L8.20356 21.0332C8.37356 20.9302 8.54353 20.8276 8.71341 20.7441C8.8832 20.6605 9.05854 20.593 9.24096 20.5628C9.42594 20.5321 9.61561 20.5404 9.80902 20.6052C9.97646 20.6614 10.1423 20.7585 10.3099 20.9033C10.4775 20.7592 10.6433 20.6628 10.8106 20.6072C11.0038 20.5429 11.1933 20.5353 11.3778 20.5663C11.5598 20.5969 11.7347 20.6647 11.9041 20.7483C12.0736 20.8318 12.2433 20.9343 12.4129 21.0369C12.757 21.2449 13.1013 21.4531 13.4809 21.5481C13.6683 21.595 13.8625 21.6138 14.0682 21.5908C14.2465 21.571 14.4375 21.5194 14.6435 21.4237C12.8062 20.4393 10.7989 18.729 10.3002 15.5495C9.8252 18.7313 7.82295 20.4603 5.98026 21.4379ZM5.77543 21.3902C7.74473 20.3704 9.9544 18.4779 10.2042 14.7848C10.2065 14.7502 10.2474 14.7221 10.2971 14.722C10.3468 14.7219 10.3878 14.7499 10.3904 14.7845C10.6689 18.4768 12.8831 20.3471 14.8472 21.376L14.9421 21.4257L14.847 21.4752C14.5851 21.6116 14.3358 21.6866 14.0963 21.7133C13.8564 21.74 13.6318 21.7176 13.4208 21.6648C13.0096 21.5619 12.644 21.3407 12.3103 21.139L12.2964 21.1305C12.1253 21.0271 11.9624 20.9289 11.8014 20.8494C11.6403 20.77 11.4867 20.7122 11.3361 20.6869C11.1881 20.662 11.0408 20.668 10.8871 20.7191C10.7311 20.7709 10.5628 20.8711 10.3811 21.0416L10.3096 21.1087L10.2382 21.0415C10.0565 20.8702 9.88817 20.7694 9.73192 20.717C9.57793 20.6653 9.43031 20.6589 9.28205 20.6834C9.13123 20.7084 8.97736 20.7659 8.81597 20.8453C8.65469 20.9247 8.49148 21.023 8.32025 21.1268C8.31314 21.1311 8.30606 21.1354 8.29893 21.1397C7.96695 21.3409 7.60381 21.5611 7.19677 21.6661C6.98644 21.7204 6.76252 21.7447 6.52353 21.7203C6.28475 21.6959 6.03639 21.6234 5.77579 21.4899L5.67883 21.4402L5.77543 21.3902Z" stroke="black" stroke-width="0.75"/>
    </mask>
    <g mask="url(#mask0_5_419)">
        <path d="M84 24H0V0L84 7.38557e-06V24Z" fill="url(#paint6_linear_5_419)"/>
    </g>
    <defs>
        <linearGradient id="paint0_linear_5_419" x1="5.50033e-07" y1="35" x2="84" y2="35" gradientUnits="userSpaceOnUse">
            <stop stop-color="#00AEFF"/>
            <stop offset="1" stop-color="#FF00A1"/>
        </linearGradient>
        <linearGradient id="paint1_linear_5_419" x1="7.32201e-06" y1="35" x2="84" y2="35" gradientUnits="userSpaceOnUse">
            <stop stop-color="#00AEFF"/>
            <stop offset="1" stop-color="#FF00A1"/>
        </linearGradient>
        <linearGradient id="paint2_linear_5_419" x1="1.18099e-05" y1="35" x2="84" y2="35" gradientUnits="userSpaceOnUse">
            <stop stop-color="#00AEFF"/>
            <stop offset="1" stop-color="#FF00A1"/>
        </linearGradient>
        <linearGradient id="paint3_linear_5_419" x1="2.1051e-06" y1="35" x2="84" y2="35" gradientUnits="userSpaceOnUse">
            <stop stop-color="#00AEFF"/>
            <stop offset="1" stop-color="#FF00A1"/>
        </linearGradient>
        <linearGradient id="paint4_linear_5_419" x1="-1.35777e-05" y1="35" x2="84" y2="35" gradientUnits="userSpaceOnUse">
            <stop stop-color="#00AEFF"/>
            <stop offset="1" stop-color="#FF00A1"/>
        </linearGradient>
        <linearGradient id="paint5_linear_5_419" x1="-1.51562e-05" y1="35" x2="84" y2="35" gradientUnits="userSpaceOnUse">
            <stop stop-color="#00AEFF"/>
            <stop offset="1" stop-color="#FF00A1"/>
        </linearGradient>
        <linearGradient id="paint6_linear_5_419" x1="0.264723" y1="12" x2="83.7353" y2="12" gradientUnits="userSpaceOnUse">
            <stop stop-color="#01AEFF"/>
            <stop offset="1" stop-color="#FF01A1"/>
        </linearGradient>
    </defs>
</svg>
